  0
SECTION
  2
HEADER
  9
$ACADVER
  1
AC1024
  9
$ACADMAINTVER
 70
     6
  9
$DWGCODEPAGE
  3
UNDEFINED
  9
$INSBASE
 10
0.0
 20
0.0
 30
0.0
  9
$EXTMIN
 10
1.000000000000000E+20
 20
1.000000000000000E+20
 30
1.000000000000000E+20
  9
$EXTMAX
 10
-1.000000000000000E+20
 20
-1.000000000000000E+20
 30
-1.000000000000000E+20
  9
$LIMMIN
 10
0.0
 20
0.0
  9
$LIMMAX
 10
12.0
 20
9.0
  9
$ORTHOMODE
 70
     0
  9
$REGENMODE
 70
     1
  9
$FILLMODE
 70
     1
  9
$QTEXTMODE
 70
     0
  9
$MIRRTEXT
 70
     1
  9
$LTSCALE
 40
1.0
  9
$ATTMODE
 70
     1
  9
$TEXTSIZE
 40
0.2
  9
$TRACEWID
 40
0.05
  9
$TEXTSTYLE
  7
Standard
  9
$CLAYER
  8
0
  9
$CELTYPE
  6
ByLayer
  9
$CECOLOR
 62
   256
  9
$CELTSCALE
 40
1.0
  9
$DISPSILH
 70
     0
  9
$DIMSCALE
 40
1.0
  9
$DIMASZ
 40
0.18
  9
$DIMEXO
 40
0.0625
  9
$DIMDLI
 40
0.38
  9
$DIMRND
 40
0.0
  9
$DIMDLE
 40
0.0
  9
$DIMEXE
 40
0.18
  9
$DIMTP
 40
0.0
  9
$DIMTM
 40
0.0
  9
$DIMTXT
 40
0.18
  9
$DIMCEN
 40
0.09
  9
$DIMTSZ
 40
0.0
  9
$DIMTOL
 70
     0
  9
$DIMLIM
 70
     0
  9
$DIMTIH
 70
     1
  9
$DIMTOH
 70
     1
  9
$DIMSE1
 70
     0
  9
$DIMSE2
 70
     0
  9
$DIMTAD
 70
     0
  9
$DIMZIN
 70
     0
  9
$DIMBLK
  1

  9
$DIMASO
 70
     1
  9
$DIMSHO
 70
     1
  9
$DIMPOST
  1

  9
$DIMAPOST
  1

  9
$DIMALT
 70
     0
  9
$DIMALTD
 70
     2
  9
$DIMALTF
 40
25.4
  9
$DIMLFAC
 40
1.0
  9
$DIMTOFL
 70
     0
  9
$DIMTVP
 40
0.0
  9
$DIMTIX
 70
     0
  9
$DIMSOXD
 70
     0
  9
$DIMSAH
 70
     0
  9
$DIMBLK1
  1

  9
$DIMBLK2
  1

  9
$DIMSTYLE
  2
Standard
  9
$DIMCLRD
 70
     0
  9
$DIMCLRE
 70
     0
  9
$DIMCLRT
 70
     0
  9
$DIMTFAC
 40
1.0
  9
$DIMGAP
 40
0.09
  9
$DIMJUST
 70
     0
  9
$DIMSD1
 70
     0
  9
$DIMSD2
 70
     0
  9
$DIMTOLJ
 70
     1
  9
$DIMTZIN
 70
     0
  9
$DIMALTZ
 70
     0
  9
$DIMALTTZ
 70
     0
  9
$DIMUPT
 70
     0
  9
$DIMDEC
 70
     4
  9
$DIMTDEC
 70
     4
  9
$DIMALTU
 70
     2
  9
$DIMALTTD
 70
     2
  9
$DIMTXSTY
  7
Standard
  9
$DIMAUNIT
 70
     0
  9
$DIMADEC
 70
     0
  9
$DIMALTRND
 40
0.0
  9
$DIMAZIN
 70
     0
  9
$DIMDSEP
 70
    46
  9
$DIMATFIT
 70
     3
  9
$DIMFRAC
 70
     0
  9
$DIMLDRBLK
  1

  9
$DIMLUNIT
 70
     2
  9
$DIMLWD
 70
    -2
  9
$DIMLWE
 70
    -2
  9
$DIMTMOVE
 70
     0
  9
$DIMFXL
 40
1.0
  9
$DIMFXLON
 70
     0
  9
$DIMJOGANG
 40
0.7853981633974483
  9
$DIMTFILL
 70
     0
  9
$DIMTFILLCLR
 70
     0
  9
$DIMARCSYM
 70
     0
  9
$DIMLTYPE
  6

  9
$DIMLTEX1
  6

  9
$DIMLTEX2
  6

  9
$DIMTXTDIRECTION
 70
     0
  9
$LUNITS
 70
     2
  9
$LUPREC
 70
     4
  9
$SKETCHINC
 40
0.1
  9
$FILLETRAD
 40
0.5
  9
$AUNITS
 70
     0
  9
$AUPREC
 70
     0
  9
$MENU
  1
.
  9
$ELEVATION
 40
0.0
  9
$PELEVATION
 40
0.0
  9
$THICKNESS
 40
0.0
  9
$LIMCHECK
 70
     0
  9
$CHAMFERA
 40
0.5
  9
$CHAMFERB
 40
0.5
  9
$CHAMFERC
 40
1.0
  9
$CHAMFERD
 40
0.0
  9
$SKPOLY
 70
     0
  9
$TDCREATE
 40
2458697.725104155
  9
$TDUCREATE
 40
2458697.850104167
  9
$TDUPDATE
 40
2458697.725104155
  9
$TDUUPDATE
 40
2458697.850104167
  9
$TDINDWG
 40
0.0000000116
  9
$TDUSRTIMER
 40
0.0000000116
  9
$USRTIMER
 70
     1
  9
$ANGBASE
 50
0.0
  9
$ANGDIR
 70
     0
  9
$PDMODE
 70
     0
  9
$PDSIZE
 40
0.0
  9
$PLINEWID
 40
0.0
  9
$SPLFRAME
 70
     0
  9
$SPLINETYPE
 70
     6
  9
$SPLINESEGS
 70
     8
  9
$HANDSEED
  5
D9
  9
$SURFTAB1
 70
     6
  9
$SURFTAB2
 70
     6
  9
$SURFTYPE
 70
     6
  9
$SURFU
 70
     6
  9
$SURFV
 70
     6
  9
$UCSBASE
  2

  9
$UCSNAME
  2

  9
$UCSORG
 10
0.0
 20
0.0
 30
0.0
  9
$UCSXDIR
 10
1.0
 20
0.0
 30
0.0
  9
$UCSYDIR
 10
0.0
 20
1.0
 30
0.0
  9
$UCSORTHOREF
  2

  9
$UCSORTHOVIEW
 70
     0
  9
$UCSORGTOP
 10
0.0
 20
0.0
 30
0.0
  9
$UCSORGBOTTOM
 10
0.0
 20
0.0
 30
0.0
  9
$UCSORGLEFT
 10
0.0
 20
0.0
 30
0.0
  9
$UCSORGRIGHT
 10
0.0
 20
0.0
 30
0.0
  9
$UCSORGFRONT
 10
0.0
 20
0.0
 30
0.0
  9
$UCSORGBACK
 10
0.0
 20
0.0
 30
0.0
  9
$PUCSBASE
  2

  9
$PUCSNAME
  2

  9
$PUCSORG
 10
0.0
 20
0.0
 30
0.0
  9
$PUCSXDIR
 10
1.0
 20
0.0
 30
0.0
  9
$PUCSYDIR
 10
0.0
 20
1.0
 30
0.0
  9
$PUCSORTHOREF
  2

  9
$PUCSORTHOVIEW
 70
     0
  9
$PUCSORGTOP
 10
0.0
 20
0.0
 30
0.0
  9
$PUCSORGBOTTOM
 10
0.0
 20
0.0
 30
0.0
  9
$PUCSORGLEFT
 10
0.0
 20
0.0
 30
0.0
  9
$PUCSORGRIGHT
 10
0.0
 20
0.0
 30
0.0
  9
$PUCSORGFRONT
 10
0.0
 20
0.0
 30
0.0
  9
$PUCSORGBACK
 10
0.0
 20
0.0
 30
0.0
  9
$USERI1
 70
     0
  9
$USERI2
 70
     0
  9
$USERI3
 70
     0
  9
$USERI4
 70
     0
  9
$USERI5
 70
     0
  9
$USERR1
 40
0.0
  9
$USERR2
 40
0.0
  9
$USERR3
 40
0.0
  9
$USERR4
 40
0.0
  9
$USERR5
 40
0.0
  9
$WORLDVIEW
 70
     1
  9
$SHADEDGE
 70
     3
  9
$SHADEDIF
 70
    70
  9
$TILEMODE
 70
     1
  9
$MAXACTVP
 70
    64
  9
$PINSBASE
 10
0.0
 20
0.0
 30
0.0
  9
$PLIMCHECK
 70
     0
  9
$PEXTMIN
 10
1.000000000000000E+20
 20
1.000000000000000E+20
 30
1.000000000000000E+20
  9
$PEXTMAX
 10
-1.000000000000000E+20
 20
-1.000000000000000E+20
 30
-1.000000000000000E+20
  9
$PLIMMIN
 10
0.0
 20
0.0
  9
$PLIMMAX
 10
12.0
 20
9.0
  9
$UNITMODE
 70
     0
  9
$VISRETAIN
 70
     1
  9
$PLINEGEN
 70
     0
  9
$PSLTSCALE
 70
     1
  9
$TREEDEPTH
 70
  3020
  9
$CMLSTYLE
  2
Standard
  9
$CMLJUST
 70
     0
  9
$CMLSCALE
 40
1.0
  9
$PROXYGRAPHICS
 70
     1
  9
$MEASUREMENT
 70
     0
  9
$CELWEIGHT
370
    -1
  9
$ENDCAPS
280
     0
  9
$JOINSTYLE
280
     0
  9
$LWDISPLAY
290
     1
  9
$INSUNITS
 70
     1
  9
$HYPERLINKBASE
  1

  9
$STYLESHEET
  1

  9
$XEDIT
290
     1
  9
$CEPSNTYPE
380
     0
  9
$PSTYLEMODE
290
     1
  9
$FINGERPRINTGUID
  2
{0DBFF594-61A2-ABF8-EBCF-4BCA7F622533}
  9
$VERSIONGUID
  2
{FAEB1C32-E019-11D5-929B-00C0DF256EC4}
  9
$EXTNAMES
290
     1
  9
$PSVPSCALE
 40
0.0
  9
$OLESTARTUP
290
     0
  9
$SORTENTS
280
   127
  9
$INDEXCTL
280
     0
  9
$HIDETEXT
280
     1
  9
$XCLIPFRAME
280
     2
  9
$HALOGAP
280
     0
  9
$OBSCOLOR
 70
   257
  9
$OBSLTYPE
280
     0
  9
$INTERSECTIONDISPLAY
280
     0
  9
$INTERSECTIONCOLOR
 70
   257
  9
$DIMASSOC
280
     2
  9
$PROJECTNAME
  1

  9
$CAMERADISPLAY
290
     0
  9
$LENSLENGTH
 40
50.0
  9
$CAMERAHEIGHT
 40
0.0
  9
$STEPSPERSEC
 40
2.0
  9
$STEPSIZE
 40
6.0
  9
$3DDWFPREC
 40
2.0
  9
$PSOLWIDTH
 40
0.25
  9
$PSOLHEIGHT
 40
4.0
  9
$LOFTANG1
 40
1.570796326794897
  9
$LOFTANG2
 40
1.570796326794897
  9
$LOFTMAG1
 40
0.0
  9
$LOFTMAG2
 40
0.0
  9
$LOFTPARAM
 70
     7
  9
$LOFTNORMALS
280
     1
  9
$LATITUDE
 40
37.795
  9
$LONGITUDE
 40
-122.394
  9
$NORTHDIRECTION
 40
0.0
  9
$TIMEZONE
 70
 -8000
  9
$LIGHTGLYPHDISPLAY
280
     1
  9
$TILEMODELIGHTSYNCH
280
     1
  9
$CMATERIAL
347
3C
  9
$SOLIDHIST
280
     1
  9
$SHOWHIST
280
     1
  9
$DWFFRAME
280
     2
  9
$DGNFRAME
280
     2
  9
$REALWORLDSCALE
290
     1
  9
$INTERFERECOLOR
 62
   256
  9
$CSHADOW
280
     0
  9
$SHADOWPLANELOCATION
 40
0.0
  0
ENDSEC
  0
SECTION
  2
CLASSES
  0
CLASS
  1
ACDBDICTIONARYWDFLT
  2
AcDbDictionaryWithDefault
  3
ObjectDBX Classes
 90
        0
 91
        4
280
     0
281
     0
  0
CLASS
  1
VISUALSTYLE
  2
AcDbVisualStyle
  3
ObjectDBX Classes
 90
     4095
 91
        4
280
     0
281
     0
  0
CLASS
  1
MATERIAL
  2
AcDbMaterial
  3
ObjectDBX Classes
 90
     1153
 91
        4
280
     0
281
     0
  0
CLASS
  1
SUN
  2
AcDbSun
  3
SCENEOE
 90
     1024
 91
        4
280
     0
281
     0
  0
ENDSEC
  0
SECTION
  2
TABLES
  0
TABLE
  2
VPORT
  5
8
330
0
100
AcDbSymbolTable
 70
     1
  0
VPORT
  5
29
330
8
100
AcDbSymbolTableRecord
100
AcDbViewportTableRecord
  2
*Active
 70
     0
 10
0.0
 20
0.0
 11
1.0
 21
1.0
 12
0.0
 22
0.0
 13
0.0
 23
0.0
 14
0.5
 24
0.5
 15
0.5
 25
0.5
 16
0.0
 26
0.0
 36
1.0
 17
82.05434720170841
 27
-24.99959721597225
 37
0.0
 40
49.9991944319445
 41
1.0
 42
50.0
 43
0.0
 44
0.0
 50
0.0
 51
0.0
 71
     0
 72
   100
 73
     1
 74
     3
 75
     0
 76
     0
 77
     0
 78
     0
281
     0
 65
     1
110
0.0
120
0.0
130
0.0
111
1.0
121
0.0
131
0.0
112
0.0
122
1.0
132
0.0
 79
     0
146
0.0
 60
     3
 61
     5
292
     1
282
     1
141
0.0
142
0.0
 63
   250
361
3F
  0
ENDTAB
  0
TABLE
  2
LTYPE
  5
5
330
0
100
AcDbSymbolTable
 70
     1
  0
LTYPE
  5
14
330
5
100
AcDbSymbolTableRecord
100
AcDbLinetypeTableRecord
  2
ByBlock
 70
     0
  3

 72
    65
 73
     0
 40
0.0
  0
LTYPE
  5
15
330
5
100
AcDbSymbolTableRecord
100
AcDbLinetypeTableRecord
  2
ByLayer
 70
     0
  3

 72
    65
 73
     0
 40
0.0
  0
LTYPE
  5
16
330
5
100
AcDbSymbolTableRecord
100
AcDbLinetypeTableRecord
  2
Continuous
 70
     0
  3
Solid line
 72
    65
 73
     0
 40
0.0
  0
ENDTAB
  0
TABLE
  2
LAYER
  5
2
330
0
100
AcDbSymbolTable
 70
     2
  0
LAYER
  5
10
330
2
100
AcDbSymbolTableRecord
100
AcDbLayerTableRecord
  2
0
 70
     0
 62
     7
  6
Continuous
370
    -3
390
F
347
3E
  0
LAYER
  5
40
330
2
100
AcDbSymbolTableRecord
100
AcDbLayerTableRecord
  2
Layer 1
 70
     0
 62
     7
  6
Continuous
370
    -3
390
F
347
3E
  0
ENDTAB
  0
TABLE
  2
STYLE
  5
3
330
0
100
AcDbSymbolTable
 70
     1
  0
STYLE
  5
11
330
3
100
AcDbSymbolTableRecord
100
AcDbTextStyleTableRecord
  2
Standard
 70
     0
 40
0.0
 41
1.0
 50
0.0
 71
     0
 42
0.2
  3
txt
  4

  0
ENDTAB
  0
TABLE
  2
VIEW
  5
6
330
0
100
AcDbSymbolTable
 70
     0
  0
ENDTAB
  0
TABLE
  2
UCS
  5
7
330
0
100
AcDbSymbolTable
 70
     0
  0
ENDTAB
  0
TABLE
  2
APPID
  5
9
330
0
100
AcDbSymbolTable
 70
     1
  0
APPID
  5
12
330
9
100
AcDbSymbolTableRecord
100
AcDbRegAppTableRecord
  2
ACAD
 70
     0
  0
ENDTAB
  0
TABLE
  2
DIMSTYLE
  5
A
330
0
100
AcDbSymbolTable
 70
     1
100
AcDbDimStyleTable
  0
DIMSTYLE
105
27
330
A
100
AcDbSymbolTableRecord
100
AcDbDimStyleTableRecord
  2
Standard
 70
     0
178
     0
340
11
  0
ENDTAB
  0
TABLE
  2
BLOCK_RECORD
  5
1
330
0
100
AcDbSymbolTable
 70
     2
  0
BLOCK_RECORD
  5
1F
330
1
100
AcDbSymbolTableRecord
100
AcDbBlockTableRecord
  2
*Model_Space
340
22
 70
     0
280
     1
281
     0
  0
BLOCK_RECORD
  5
1B
330
1
100
AcDbSymbolTableRecord
100
AcDbBlockTableRecord
  2
*Paper_Space
340
1E
 70
     0
280
     1
281
     0
  0
BLOCK_RECORD
  5
23
330
1
100
AcDbSymbolTableRecord
100
AcDbBlockTableRecord
  2
*Paper_Space0
340
26
 70
     0
280
     1
281
     0
  0
BLOCK_RECORD
  5
8F
330
1
100
AcDbSymbolTableRecord
100
AcDbBlockTableRecord
  2
block 2
340
0
102
{BLKREFS
331
90
102
}
 70
     0
280
     1
281
     0
  0
ENDTAB
  0
ENDSEC
  0
SECTION
  2
BLOCKS
  0
BLOCK
  5
20
330
1F
100
AcDbEntity
  8
0
100
AcDbBlockBegin
  2
*Model_Space
 70
     0
 10
0.0
 20
0.0
 30
0.0
  3
*Model_Space
  1

  0
ENDBLK
  5
21
330
1F
100
AcDbEntity
  8
0
100
AcDbBlockEnd
  0
BLOCK
  5
1C
330
1B
100
AcDbEntity
 67
     1
  8
0
100
AcDbBlockBegin
  2
*Paper_Space
 70
     0
 10
0.0
 20
0.0
 30
0.0
  3
*Paper_Space
  1

  0
ENDBLK
  5
1D
330
1B
100
AcDbEntity
 67
     1
  8
0
100
AcDbBlockEnd
  0
BLOCK
  5
24
330
23
100
AcDbEntity
  8
0
100
AcDbBlockBegin
  2
*Paper_Space0
 70
     0
 10
0.0
 20
0.0
 30
0.0
  3
*Paper_Space0
  1

  0
ENDBLK
  5
25
330
23
100
AcDbEntity
  8
0
100
AcDbBlockEnd
  0
BLOCK
  5
91
330
8F
100
AcDbEntity
  8
0
100
AcDbBlockBegin
  2
block 2
 70
     0
 10
0.0
 20
0.0
 30
0.0
  3
block 2
  1

  0
POLYLINE
  5
93
330
8F
100
AcDbEntity
  8
Layer 1
370
     0
100
AcDb2dPolyline
 66
     1
 10
0.0
 20
0.0
 30
0.0
  0
VERTEX
  5
94
330
93
100
AcDbEntity
  8
Layer 1
370
     0
100
AcDbVertex
100
AcDb2dVertex
 10
69.74434749075004
 20
-26.24957958284647
 30
0.0
  0
VERTEX
  5
95
330
93
100
AcDbEntity
  8
Layer 1
370
     0
100
AcDbVertex
100
AcDb2dVertex
 10
69.24434749087548
 20
-26.24957958284647
 30
0.0
  0
VERTEX
  5
96
330
93
100
AcDbEntity
  8
Layer 1
370
     0
100
AcDbVertex
100
AcDb2dVertex
 10
69.24434749087548
 20
-23.74957958347204
 30
0.0
  0
VERTEX
  5
97
330
93
100
AcDbEntity
  8
Layer 1
370
     0
100
AcDbVertex
100
AcDb2dVertex
 10
69.74434749075004
 20
-23.74957958347204
 30
0.0
  0
VERTEX
  5
98
330
93
100
AcDbEntity
  8
Layer 1
370
     0
100
AcDbVertex
100
AcDb2dVertex
 10
69.74434749075004
 20
-26.24957958284647
 30
0.0
  0
SEQEND
  5
99
330
93
100
AcDbEntity
  8
Layer 1
370
     0
  0
POLYLINE
  5
9A
330
8F
100
AcDbEntity
  8
Layer 1
370
     0
100
AcDb2dPolyline
 66
     1
 10
0.0
 20
0.0
 30
0.0
  0
VERTEX
  5
9B
330
9A
100
AcDbEntity
  8
Layer 1
370
     0
100
AcDbVertex
100
AcDb2dVertex
 10
69.2443474880058
 20
-26.24957958284711
 30
0.0
  0
VERTEX
  5
9C
330
9A
100
AcDbEntity
  8
Layer 1
370
     0
100
AcDbVertex
100
AcDb2dVertex
 10
66.74434748863041
 20
-26.24957958284711
 30
0.0
  0
VERTEX
  5
9D
330
9A
100
AcDbEntity
  8
Layer 1
370
     0
100
AcDbVertex
100
AcDb2dVertex
 10
66.74434748863041
 20
-23.74957958347204
 30
0.0
  0
VERTEX
  5
9E
330
9A
100
AcDbEntity
  8
Layer 1
370
     0
100
AcDbVertex
100
AcDb2dVertex
 10
69.2443474880058
 20
-23.74957958347204
 30
0.0
  0
VERTEX
  5
9F
330
9A
100
AcDbEntity
  8
Layer 1
370
     0
100
AcDbVertex
100
AcDb2dVertex
 10
69.2443474880058
 20
-26.24957958284711
 30
0.0
  0
SEQEND
  5
A0
330
9A
100
AcDbEntity
  8
Layer 1
370
     0
  0
POLYLINE
  5
A1
330
8F
100
AcDbEntity
  8
Layer 1
370
     0
100
AcDb2dPolyline
 66
     1
 10
0.0
 20
0.0
 30
0.0
  0
VERTEX
  5
A2
330
A1
100
AcDbEntity
  8
Layer 1
370
     0
100
AcDbVertex
100
AcDb2dVertex
 10
72.744347405229
 20
-26.24963248726689
 30
0.0
  0
VERTEX
  5
A3
330
A1
100
AcDbEntity
  8
Layer 1
370
     0
100
AcDbVertex
100
AcDb2dVertex
 10
72.24434740535443
 20
-26.24963248726689
 30
0.0
  0
VERTEX
  5
A4
330
A1
100
AcDbEntity
  8
Layer 1
370
     0
100
AcDbVertex
100
AcDb2dVertex
 10
72.24434740535443
 20
-23.74963248789246
 30
0.0
  0
VERTEX
  5
A5
330
A1
100
AcDbEntity
  8
Layer 1
370
     0
100
AcDbVertex
100
AcDb2dVertex
 10
72.744347405229
 20
-23.74963248789246
 30
0.0
  0
VERTEX
  5
A6
330
A1
100
AcDbEntity
  8
Layer 1
370
     0
100
AcDbVertex
100
AcDb2dVertex
 10
72.744347405229
 20
-26.24963248726689
 30
0.0
  0
SEQEND
  5
A7
330
A1
100
AcDbEntity
  8
Layer 1
370
     0
  0
POLYLINE
  5
A8
330
8F
100
AcDbEntity
  8
Layer 1
370
     0
100
AcDb2dPolyline
 66
     1
 10
0.0
 20
0.0
 30
0.0
  0
VERTEX
  5
A9
330
A8
100
AcDbEntity
  8
Layer 1
370
     0
100
AcDbVertex
100
AcDb2dVertex
 10
72.24434740248475
 20
-26.24963248726753
 30
0.0
  0
VERTEX
  5
AA
330
A8
100
AcDbEntity
  8
Layer 1
370
     0
100
AcDbVertex
100
AcDb2dVertex
 10
69.74434740310936
 20
-26.24963248726753
 30
0.0
  0
VERTEX
  5
AB
330
A8
100
AcDbEntity
  8
Layer 1
370
     0
100
AcDbVertex
100
AcDb2dVertex
 10
69.74434740310936
 20
-23.74963248789246
 30
0.0
  0
VERTEX
  5
AC
330
A8
100
AcDbEntity
  8
Layer 1
370
     0
100
AcDbVertex
100
AcDb2dVertex
 10
72.24434740248475
 20
-23.74963248789246
 30
0.0
  0
VERTEX
  5
AD
330
A8
100
AcDbEntity
  8
Layer 1
370
     0
100
AcDbVertex
100
AcDb2dVertex
 10
72.24434740248475
 20
-26.24963248726753
 30
0.0
  0
SEQEND
  5
AE
330
A8
100
AcDbEntity
  8
Layer 1
370
     0
  0
POLYLINE
  5
AF
330
8F
100
AcDbEntity
  8
Layer 1
370
     0
100
AcDb2dPolyline
 66
     1
 10
0.0
 20
0.0
 30
0.0
  0
VERTEX
  5
B0
330
AF
100
AcDbEntity
  8
Layer 1
370
     0
100
AcDbVertex
100
AcDb2dVertex
 10
75.74434731970794
 20
-26.24963248726689
 30
0.0
  0
VERTEX
  5
B1
330
AF
100
AcDbEntity
  8
Layer 1
370
     0
100
AcDbVertex
100
AcDb2dVertex
 10
75.24434731983338
 20
-26.24963248726689
 30
0.0
  0
VERTEX
  5
B2
330
AF
100
AcDbEntity
  8
Layer 1
370
     0
100
AcDbVertex
100
AcDb2dVertex
 10
75.24434731983338
 20
-23.74963248789246
 30
0.0
  0
VERTEX
  5
B3
330
AF
100
AcDbEntity
  8
Layer 1
370
     0
100
AcDbVertex
100
AcDb2dVertex
 10
75.74434731970794
 20
-23.74963248789246
 30
0.0
  0
VERTEX
  5
B4
330
AF
100
AcDbEntity
  8
Layer 1
370
     0
100
AcDbVertex
100
AcDb2dVertex
 10
75.74434731970794
 20
-26.24963248726689
 30
0.0
  0
SEQEND
  5
B5
330
AF
100
AcDbEntity
  8
Layer 1
370
     0
  0
POLYLINE
  5
B6
330
8F
100
AcDbEntity
  8
Layer 1
370
     0
100
AcDb2dPolyline
 66
     1
 10
0.0
 20
0.0
 30
0.0
  0
VERTEX
  5
B7
330
B6
100
AcDbEntity
  8
Layer 1
370
     0
100
AcDbVertex
100
AcDb2dVertex
 10
75.2443473169637
 20
-26.24963248726753
 30
0.0
  0
VERTEX
  5
B8
330
B6
100
AcDbEntity
  8
Layer 1
370
     0
100
AcDbVertex
100
AcDb2dVertex
 10
72.7443473175883
 20
-26.24963248726753
 30
0.0
  0
VERTEX
  5
B9
330
B6
100
AcDbEntity
  8
Layer 1
370
     0
100
AcDbVertex
100
AcDb2dVertex
 10
72.7443473175883
 20
-23.74963248789246
 30
0.0
  0
VERTEX
  5
BA
330
B6
100
AcDbEntity
  8
Layer 1
370
     0
100
AcDbVertex
100
AcDb2dVertex
 10
75.2443473169637
 20
-23.74963248789246
 30
0.0
  0
VERTEX
  5
BB
330
B6
100
AcDbEntity
  8
Layer 1
370
     0
100
AcDbVertex
100
AcDb2dVertex
 10
75.2443473169637
 20
-26.24963248726753
 30
0.0
  0
SEQEND
  5
BC
330
B6
100
AcDbEntity
  8
Layer 1
370
     0
  0
POLYLINE
  5
BD
330
8F
100
AcDbEntity
  8
Layer 1
370
     0
100
AcDb2dPolyline
 66
     1
 10
0.0
 20
0.0
 30
0.0
  0
VERTEX
  5
BE
330
BD
100
AcDbEntity
  8
Layer 1
370
     0
100
AcDbVertex
100
AcDb2dVertex
 10
78.24434723144265
 20
-26.24956194395739
 30
0.0
  0
VERTEX
  5
BF
330
BD
100
AcDbEntity
  8
Layer 1
370
     0
100
AcDbVertex
100
AcDb2dVertex
 10
75.74434723206726
 20
-26.24956194395739
 30
0.0
  0
VERTEX
  5
C0
330
BD
100
AcDbEntity
  8
Layer 1
370
     0
100
AcDbVertex
100
AcDb2dVertex
 10
75.74434723206726
 20
-23.74956194458231
 30
0.0
  0
VERTEX
  5
C1
330
BD
100
AcDbEntity
  8
Layer 1
370
     0
100
AcDbVertex
100
AcDb2dVertex
 10
78.24434723144265
 20
-23.74956194458231
 30
0.0
  0
VERTEX
  5
C2
330
BD
100
AcDbEntity
  8
Layer 1
370
     0
100
AcDbVertex
100
AcDb2dVertex
 10
78.24434723144265
 20
-26.24956194395739
 30
0.0
  0
SEQEND
  5
C3
330
BD
100
AcDbEntity
  8
Layer 1
370
     0
  0
SPLINE
  5
C4
330
8F
100
AcDbEntity
  8
Layer 1
370
     0
100
AcDbSpline
210
0.0
220
0.0
230
1.0
 70
    11
 71
     3
 72
    17
 73
    13
 74
     0
 42
0.0000000001
 43
0.0000000001
 12
1.0
 22
0.0
 32
0.0
 13
1.0
 23
0.0
 33
0.0
 40
0.0
 40
0.0
 40
0.0
 40
0.0
 40
1.0
 40
1.0
 40
1.0
 40
2.0
 40
2.0
 40
2.0
 40
3.0
 40
3.0
 40
3.0
 40
4.0
 40
4.0
 40
4.0
 40
4.0
 10
69.0093474990968
 20
-24.99957958315941
 30
0.0
 10
69.0093474990968
 20
-25.5601486040669
 30
0.0
 10
68.55491652025832
 20
-26.01457958290539
 30
0.0
 10
67.99434749935084
 20
-26.01457958290539
 30
0.0
 10
67.43377847844334
 20
-26.01457958290539
 30
0.0
 10
66.97934749960487
 20
-25.5601486040669
 30
0.0
 10
66.97934749960487
 20
-24.99957958315941
 30
0.0
 10
66.97934749960487
 20
-24.43901056225257
 30
0.0
 10
67.43377847844334
 20
-23.9845795834128
 30
0.0
 10
67.99434749935084
 20
-23.9845795834128
 30
0.0
 10
68.55491652025832
 20
-23.9845795834128
 30
0.0
 10
69.0093474990968
 20
-24.43901056225257
 30
0.0
 10
69.0093474990968
 20
-24.99957958315941
 30
0.0
  0
SPLINE
  5
C5
330
8F
100
AcDbEntity
  8
Layer 1
370
     0
100
AcDbSpline
210
0.0
220
0.0
230
1.0
 70
    11
 71
     3
 72
    17
 73
    13
 74
     0
 42
0.0000000001
 43
0.0000000001
 12
1.0
 22
0.0
 32
0.0
 13
1.0
 23
0.0
 33
0.0
 40
0.0
 40
0.0
 40
0.0
 40
0.0
 40
1.0
 40
1.0
 40
1.0
 40
2.0
 40
2.0
 40
2.0
 40
3.0
 40
3.0
 40
3.0
 40
4.0
 40
4.0
 40
4.0
 40
4.0
 10
72.00934741357575
 20
-24.99963249982858
 30
0.0
 10
72.00934741357575
 20
-25.56020152073607
 30
0.0
 10
71.55491643473727
 20
-26.01463249957455
 30
0.0
 10
70.99434741382979
 20
-26.01463249957455
 30
0.0
 10
70.43377839292229
 20
-26.01463249957455
 30
0.0
 10
69.97934741408382
 20
-25.56020152073607
 30
0.0
 10
69.97934741408382
 20
-24.99963249982858
 30
0.0
 10
69.97934741408382
 20
-24.43906347892174
 30
0.0
 10
70.43377839292229
 20
-23.98463250008197
 30
0.0
 10
70.99434741382979
 20
-23.98463250008197
 30
0.0
 10
71.55491643473727
 20
-23.98463250008197
 30
0.0
 10
72.00934741357575
 20
-24.43906347892174
 30
0.0
 10
72.00934741357575
 20
-24.99963249982858
 30
0.0
  0
SPLINE
  5
C6
330
8F
100
AcDbEntity
  8
Layer 1
370
     0
100
AcDbSpline
210
0.0
220
0.0
230
1.0
 70
    11
 71
     3
 72
    17
 73
    13
 74
     0
 42
0.0000000001
 43
0.0000000001
 12
1.0
 22
0.0
 32
0.0
 13
1.0
 23
0.0
 33
0.0
 40
0.0
 40
0.0
 40
0.0
 40
0.0
 40
1.0
 40
1.0
 40
1.0
 40
2.0
 40
2.0
 40
2.0
 40
3.0
 40
3.0
 40
3.0
 40
4.0
 40
4.0
 40
4.0
 40
4.0
 10
75.0093473280547
 20
-24.99956194426969
 30
0.0
 10
75.0093473280547
 20
-25.56013096517718
 30
0.0
 10
74.55491634921623
 20
-26.01456194401566
 30
0.0
 10
73.99434732830873
 20
-26.01456194401566
 30
0.0
 10
73.43377830740124
 20
-26.01456194401566
 30
0.0
 10
72.97934732856277
 20
-25.56013096517718
 30
0.0
 10
72.97934732856277
 20
-24.99956194426969
 30
0.0
 10
72.97934732856277
 20
-24.43899292336285
 30
0.0
 10
73.43377830740124
 20
-23.98456194452308
 30
0.0
 10
73.99434732830873
 20
-23.98456194452308
 30
0.0
 10
74.55491634921623
 20
-23.98456194452308
 30
0.0
 10
75.0093473280547
 20
-24.43899292336285
 30
0.0
 10
75.0093473280547
 20
-24.99956194426969
 30
0.0
  0
SPLINE
  5
C7
330
8F
100
AcDbEntity
  8
Layer 1
370
     0
100
AcDbSpline
210
0.0
220
0.0
230
1.0
 70
    11
 71
     3
 72
    17
 73
    13
 74
     0
 42
0.0000000001
 43
0.0000000001
 12
1.0
 22
0.0
 32
0.0
 13
1.0
 23
0.0
 33
0.0
 40
0.0
 40
0.0
 40
0.0
 40
0.0
 40
1.0
 40
1.0
 40
1.0
 40
2.0
 40
2.0
 40
2.0
 40
3.0
 40
3.0
 40
3.0
 40
4.0
 40
4.0
 40
4.0
 40
4.0
 10
78.00934724253365
 20
-24.99956194426937
 30
0.0
 10
78.00934724253365
 20
-25.56013096517654
 30
0.0
 10
77.55491626369518
 20
-26.01456194401502
 30
0.0
 10
76.99434724278768
 20
-26.01456194401502
 30
0.0
 10
76.4337782218802
 20
-26.01456194401502
 30
0.0
 10
75.97934724304172
 20
-25.56013096517654
 30
0.0
 10
75.97934724304172
 20
-24.99956194426937
 30
0.0
 10
75.97934724304172
 20
-24.43899292336253
 30
0.0
 10
76.4337782218802
 20
-23.98456194452276
 30
0.0
 10
76.99434724278768
 20
-23.98456194452276
 30
0.0
 10
77.55491626369518
 20
-23.98456194452276
 30
0.0
 10
78.00934724253365
 20
-24.43899292336253
 30
0.0
 10
78.00934724253365
 20
-24.99956194426937
 30
0.0
  0
SPLINE
  5
C8
330
8F
100
AcDbEntity
  8
Layer 1
370
     0
100
AcDbSpline
210
0.0
220
0.0
230
1.0
 70
    11
 71
     3
 72
    17
 73
    13
 74
     0
 42
0.0000000001
 43
0.0000000001
 12
1.0
 22
0.0
 32
0.0
 13
1.0
 23
0.0
 33
0.0
 40
0.0
 40
0.0
 40
0.0
 40
0.0
 40
1.0
 40
1.0
 40
1.0
 40
2.0
 40
2.0
 40
2.0
 40
3.0
 40
3.0
 40
3.0
 40
4.0
 40
4.0
 40
4.0
 40
4.0
 10
71.9093474136011
 20
-24.99963248757983
 30
0.0
 10
71.9093474136011
 20
-25.50497303352059
 30
0.0
 10
71.49968795977054
 20
-25.91463248735115
 30
0.0
 10
70.99434741382979
 20
-25.91463248735115
 30
0.0
 10
70.48900686788903
 20
-25.91463248735115
 30
0.0
 10
70.07934741405847
 20
-25.50497303352059
 30
0.0
 10
70.07934741405847
 20
-24.99963248757983
 30
0.0
 10
70.07934741405847
 20
-24.49429194163908
 30
0.0
 10
70.48900686788903
 20
-24.08463248780852
 30
0.0
 10
70.99434741382979
 20
-24.08463248780852
 30
0.0
 10
71.49968795977054
 20
-24.08463248780852
 30
0.0
 10
71.9093474136011
 20
-24.49429194163908
 30
0.0
 10
71.9093474136011
 20
-24.99963248757983
 30
0.0
  0
SPLINE
  5
C9
330
8F
100
AcDbEntity
  8
Layer 1
370
     0
100
AcDbSpline
210
0.0
220
0.0
230
1.0
 70
    11
 71
     3
 72
    17
 73
    13
 74
     0
 42
0.0000000001
 43
0.0000000001
 12
1.0
 22
0.0
 32
0.0
 13
1.0
 23
0.0
 33
0.0
 40
0.0
 40
0.0
 40
0.0
 40
0.0
 40
1.0
 40
1.0
 40
1.0
 40
2.0
 40
2.0
 40
2.0
 40
3.0
 40
3.0
 40
3.0
 40
4.0
 40
4.0
 40
4.0
 40
4.0
 10
68.90934749912215
 20
-24.99956194426969
 30
0.0
 10
68.90934749912215
 20
-25.50490249021045
 30
0.0
 10
68.49968804529159
 20
-25.91456194404101
 30
0.0
 10
67.99434749935084
 20
-25.91456194404101
 30
0.0
 10
67.48900695341008
 20
-25.91456194404101
 30
0.0
 10
67.07934749957953
 20
-25.50490249021045
 30
0.0
 10
67.07934749957953
 20
-24.99956194426969
 30
0.0
 10
67.07934749957953
 20
-24.49422139832894
 30
0.0
 10
67.48900695341008
 20
-24.08456194449838
 30
0.0
 10
67.99434749935084
 20
-24.08456194449838
 30
0.0
 10
68.49968804529159
 20
-24.08456194449838
 30
0.0
 10
68.90934749912215
 20
-24.49422139832894
 30
0.0
 10
68.90934749912215
 20
-24.99956194426969
 30
0.0
  0
SPLINE
  5
CA
330
8F
100
AcDbEntity
  8
Layer 1
370
     0
100
AcDbSpline
210
0.0
220
0.0
230
1.0
 70
    11
 71
     3
 72
    17
 73
    13
 74
     0
 42
0.0000000001
 43
0.0000000001
 12
1.0
 22
0.0
 32
0.0
 13
1.0
 23
0.0
 33
0.0
 40
0.0
 40
0.0
 40
0.0
 40
0.0
 40
1.0
 40
1.0
 40
1.0
 40
2.0
 40
2.0
 40
2.0
 40
3.0
 40
3.0
 40
3.0
 40
4.0
 40
4.0
 40
4.0
 40
4.0
 10
74.90934732808005
 20
-24.99963248757983
 30
0.0
 10
74.90934732808005
 20
-25.50497303352059
 30
0.0
 10
74.49968787424949
 20
-25.91463248735115
 30
0.0
 10
73.99434732830873
 20
-25.91463248735115
 30
0.0
 10
73.48900678236798
 20
-25.91463248735115
 30
0.0
 10
73.07934732853742
 20
-25.50497303352059
 30
0.0
 10
73.07934732853742
 20
-24.99963248757983
 30
0.0
 10
73.07934732853742
 20
-24.49429194163908
 30
0.0
 10
73.48900678236798
 20
-24.08463248780852
 30
0.0
 10
73.99434732830873
 20
-24.08463248780852
 30
0.0
 10
74.49968787424949
 20
-24.08463248780852
 30
0.0
 10
74.90934732808005
 20
-24.49429194163908
 30
0.0
 10
74.90934732808005
 20
-24.99963248757983
 30
0.0
  0
SPLINE
  5
CB
330
8F
100
AcDbEntity
  8
Layer 1
370
     0
100
AcDbSpline
210
0.0
220
0.0
230
1.0
 70
    11
 71
     3
 72
    17
 73
    13
 74
     0
 42
0.0000000001
 43
0.0000000001
 12
1.0
 22
0.0
 32
0.0
 13
1.0
 23
0.0
 33
0.0
 40
0.0
 40
0.0
 40
0.0
 40
0.0
 40
1.0
 40
1.0
 40
1.0
 40
2.0
 40
2.0
 40
2.0
 40
3.0
 40
3.0
 40
3.0
 40
4.0
 40
4.0
 40
4.0
 40
4.0
 10
77.909347242559
 20
-24.99956194426969
 30
0.0
 10
77.909347242559
 20
-25.50490249021045
 30
0.0
 10
77.49968778872844
 20
-25.91456194404101
 30
0.0
 10
76.99434724278768
 20
-25.91456194404101
 30
0.0
 10
76.48900669684693
 20
-25.91456194404101
 30
0.0
 10
76.07934724301637
 20
-25.50490249021045
 30
0.0
 10
76.07934724301637
 20
-24.99956194426969
 30
0.0
 10
76.07934724301637
 20
-24.49422139832894
 30
0.0
 10
76.48900669684693
 20
-24.08456194449838
 30
0.0
 10
76.99434724278768
 20
-24.08456194449838
 30
0.0
 10
77.49968778872844
 20
-24.08456194449838
 30
0.0
 10
77.909347242559
 20
-24.49422139832894
 30
0.0
 10
77.909347242559
 20
-24.99956194426969
 30
0.0
  0
ENDBLK
  5
92
330
8F
100
AcDbEntity
  8
0
100
AcDbBlockEnd
  0
ENDSEC
  0
SECTION
  2
ENTITIES
  0
POLYLINE
  5
41
330
1F
100
AcDbEntity
  8
Layer 1
 62
   179
420
  2301728
370
     9
100
AcDb2dPolyline
 66
     1
 10
0.0
 20
0.0
 30
0.0
  0
VERTEX
  5
42
330
41
100
AcDbEntity
  8
Layer 1
 62
   179
420
  2301728
370
     9
100
AcDbVertex
100
AcDb2dVertex
 10
60.05360708909822
 20
-46.99964846047203
 30
0.0
  0
VERTEX
  5
43
330
41
100
AcDbEntity
  8
Layer 1
 62
   179
420
  2301728
370
     9
100
AcDbVertex
100
AcDb2dVertex
 10
60.05360708909822
 20
-2.999404860361101
 30
0.0
  0
VERTEX
  5
44
330
41
100
AcDbEntity
  8
Layer 1
 62
   179
420
  2301728
370
     9
100
AcDbVertex
100
AcDb2dVertex
 10
104.0536774141296
 20
-2.999404860361101
 30
0.0
  0
VERTEX
  5
45
330
41
100
AcDbEntity
  8
Layer 1
 62
   179
420
  2301728
370
     9
100
AcDbVertex
100
AcDb2dVertex
 10
104.0536774141296
 20
-46.99964846047203
 30
0.0
  0
VERTEX
  5
46
330
41
100
AcDbEntity
  8
Layer 1
 62
   179
420
  2301728
370
     9
100
AcDbVertex
100
AcDb2dVertex
 10
60.05360708909822
 20
-46.99964846047203
 30
0.0
  0
SEQEND
  5
47
330
41
100
AcDbEntity
  8
Layer 1
 62
   179
420
  2301728
370
     9
  0
POLYLINE
  5
48
330
1F
100
AcDbEntity
  8
Layer 1
 62
    49
420
  4276290
370
    35
100
AcDb2dPolyline
 66
     1
 10
0.0
 20
0.0
 30
0.0
  0
VERTEX
  5
49
330
48
100
AcDbEntity
  8
Layer 1
 62
    49
420
  4276290
370
    35
100
AcDbVertex
100
AcDb2dVertex
 10
57.05432577672737
 20
-49.99928262638925
 30
0.0
  0
VERTEX
  5
4A
330
48
100
AcDbEntity
  8
Layer 1
 62
    49
420
  4276290
370
    35
100
AcDbVertex
100
AcDb2dVertex
 10
107.0543656122312
 20
-49.99928262638925
 30
0.0
  0
VERTEX
  5
4B
330
48
100
AcDbEntity
  8
Layer 1
 62
    49
420
  4276290
370
    35
100
AcDbVertex
100
AcDb2dVertex
 10
107.0543656122312
 20
0.0000881944441195
 30
0.0
  0
VERTEX
  5
4C
330
48
100
AcDbEntity
  8
Layer 1
 62
    49
420
  4276290
370
    35
100
AcDbVertex
100
AcDb2dVertex
 10
57.05432577672737
 20
0.0000881944441195
 30
0.0
  0
VERTEX
  5
4D
330
48
100
AcDbEntity
  8
Layer 1
 62
    49
420
  4276290
370
    35
100
AcDbVertex
100
AcDb2dVertex
 10
57.05432577672737
 20
-49.99928262638925
 30
0.0
  0
SEQEND
  5
4E
330
48
100
AcDbEntity
  8
Layer 1
 62
    49
420
  4276290
370
    35
  0
SPLINE
  5
4F
330
1F
100
AcDbEntity
  8
Layer 1
 62
   179
420
  2301728
370
     9
100
AcDbSpline
210
0.0
220
0.0
230
1.0
 70
    11
 71
     3
 72
    17
 73
    13
 74
     0
 42
0.0000000001
 43
0.0000000001
 12
1.0
 22
0.0
 32
0.0
 13
1.0
 23
0.0
 33
0.0
 40
0.0
 40
0.0
 40
0.0
 40
0.0
 40
1.0
 40
1.0
 40
1.0
 40
2.0
 40
2.0
 40
2.0
 40
3.0
 40
3.0
 40
3.0
 40
4.0
 40
4.0
 40
4.0
 40
4.0
 10
77.30391081567298
 20
-35.9997904076668
 30
0.0
 10
77.30391081567298
 20
-39.45143874013724
 30
0.0
 10
74.50546588706726
 20
-42.2495309616599
 30
0.0
 10
71.0538176417928
 20
-42.2495309616599
 30
0.0
 10
67.60216939651835
 20
-42.2495309616599
 30
0.0
 10
64.80372446791263
 20
-39.45143874013724
 30
0.0
 10
64.80372446791263
 20
-35.9997904076668
 30
0.0
 10
64.80372446791263
 20
-32.5477892974186
 30
0.0
 10
67.60216939651835
 20
-29.74969707589594
 30
0.0
 10
71.0538176417928
 20
-29.74969707589594
 30
0.0
 10
74.50546588706726
 20
-29.74969707589594
 30
0.0
 10
77.30391081567298
 20
-32.5477892974186
 30
0.0
 10
77.30391081567298
 20
-35.9997904076668
 30
0.0
  0
POLYLINE
  5
50
330
1F
100
AcDbEntity
  8
Layer 1
 62
   179
420
  2301728
370
     9
100
AcDb2dPolyline
 66
     1
 10
0.0
 20
0.0
 30
0.0
  0
VERTEX
  5
51
330
50
100
AcDbEntity
  8
Layer 1
 62
   179
420
  2301728
370
     9
100
AcDbVertex
100
AcDb2dVertex
 10
71.0538176417928
 20
-33.49968957495841
 30
0.0
  0
VERTEX
  5
52
330
50
100
AcDbEntity
  8
Layer 1
 62
   179
420
  2301728
370
     9
100
AcDbVertex
100
AcDb2dVertex
 10
71.0538176417928
 20
-38.49989124037519
 30
0.0
  0
SEQEND
  5
53
330
50
100
AcDbEntity
  8
Layer 1
 62
   179
420
  2301728
370
     9
  0
POLYLINE
  5
54
330
1F
100
AcDbEntity
  8
Layer 1
 62
   179
420
  2301728
370
     9
100
AcDb2dPolyline
 66
     1
 10
0.0
 20
0.0
 30
0.0
  0
VERTEX
  5
55
330
54
100
AcDbEntity
  8
Layer 1
 62
   179
420
  2301728
370
     9
100
AcDbVertex
100
AcDb2dVertex
 10
73.5539218661989
 20
-35.99943762988904
 30
0.0
  0
VERTEX
  5
56
330
54
100
AcDbEntity
  8
Layer 1
 62
   179
420
  2301728
370
     9
100
AcDbVertex
100
AcDb2dVertex
 10
68.55371687224236
 20
-35.99943762988904
 30
0.0
  0
SEQEND
  5
57
330
54
100
AcDbEntity
  8
Layer 1
 62
   179
420
  2301728
370
     9
  0
SPLINE
  5
58
330
1F
100
AcDbEntity
  8
Layer 1
 62
   179
420
  2301728
370
     9
100
AcDbSpline
210
0.0
220
0.0
230
1.0
 70
    11
 71
     3
 72
    17
 73
    13
 74
     0
 42
0.0000000001
 43
0.0000000001
 12
1.0
 22
0.0
 32
0.0
 13
1.0
 23
0.0
 33
0.0
 40
0.0
 40
0.0
 40
0.0
 40
0.0
 40
1.0
 40
1.0
 40
1.0
 40
2.0
 40
2.0
 40
2.0
 40
3.0
 40
3.0
 40
3.0
 40
4.0
 40
4.0
 40
4.0
 40
4.0
 10
99.30394386551649
 20
-13.99975680205545
 30
0.0
 10
99.30394386551649
 20
-17.4514051345259
 30
0.0
 10
96.50549893691077
 20
-20.24949735604856
 30
0.0
 10
93.05385069163631
 20
-20.24949735604856
 30
0.0
 10
89.60220244636186
 20
-20.24949735604856
 30
0.0
 10
86.80375751775614
 20
-17.4514051345259
 30
0.0
 10
86.80375751775614
 20
-13.99975680205545
 30
0.0
 10
86.80375751775614
 20
-10.54775569180725
 30
0.0
 10
89.60220244636186
 20
-7.749663470284592
 30
0.0
 10
93.05385069163631
 20
-7.749663470284592
 30
0.0
 10
96.50549893691077
 20
-7.749663470284592
 30
0.0
 10
99.30394386551649
 20
-10.54775569180725
 30
0.0
 10
99.30394386551649
 20
-13.99975680205545
 30
0.0
  0
POLYLINE
  5
59
330
1F
100
AcDbEntity
  8
Layer 1
 62
   179
420
  2301728
370
     9
100
AcDb2dPolyline
 66
     1
 10
0.0
 20
0.0
 30
0.0
  0
VERTEX
  5
5A
330
59
100
AcDbEntity
  8
Layer 1
 62
   179
420
  2301728
370
     9
100
AcDbVertex
100
AcDb2dVertex
 10
93.05385069163631
 20
-11.49965596934706
 30
0.0
  0
VERTEX
  5
5B
330
59
100
AcDbEntity
  8
Layer 1
 62
   179
420
  2301728
370
     9
100
AcDbVertex
100
AcDb2dVertex
 10
93.05385069163631
 20
-16.49985763476385
 30
0.0
  0
SEQEND
  5
5C
330
59
100
AcDbEntity
  8
Layer 1
 62
   179
420
  2301728
370
     9
  0
POLYLINE
  5
5D
330
1F
100
AcDbEntity
  8
Layer 1
 62
   179
420
  2301728
370
     9
100
AcDb2dPolyline
 66
     1
 10
0.0
 20
0.0
 30
0.0
  0
VERTEX
  5
5E
330
5D
100
AcDbEntity
  8
Layer 1
 62
   179
420
  2301728
370
     9
100
AcDbVertex
100
AcDb2dVertex
 10
95.55395146118676
 20
-13.99940402427769
 30
0.0
  0
VERTEX
  5
5F
330
5D
100
AcDbEntity
  8
Layer 1
 62
   179
420
  2301728
370
     9
100
AcDbVertex
100
AcDb2dVertex
 10
90.55374992208587
 20
-13.99940402427769
 30
0.0
  0
SEQEND
  5
60
330
5D
100
AcDbEntity
  8
Layer 1
 62
   179
420
  2301728
370
     9
  0
SPLINE
  5
61
330
1F
100
AcDbEntity
  8
Layer 1
 62
   179
420
  2301728
370
     9
100
AcDbSpline
210
0.0
220
0.0
230
1.0
 70
    11
 71
     3
 72
    17
 73
    13
 74
     0
 42
0.0000000001
 43
0.0000000001
 12
1.0
 22
0.0
 32
0.0
 13
1.0
 23
0.0
 33
0.0
 40
0.0
 40
0.0
 40
0.0
 40
0.0
 40
1.0
 40
1.0
 40
1.0
 40
2.0
 40
2.0
 40
2.0
 40
3.0
 40
3.0
 40
3.0
 40
4.0
 40
4.0
 40
4.0
 40
4.0
 10
77.30391081567298
 20
-13.99975680205545
 30
0.0
 10
77.30391081567298
 20
-17.4514051345259
 30
0.0
 10
74.50546588706726
 20
-20.24949735604856
 30
0.0
 10
71.0538176417928
 20
-20.24949735604856
 30
0.0
 10
67.60216939651835
 20
-20.24949735604856
 30
0.0
 10
64.80372446791263
 20
-17.4514051345259
 30
0.0
 10
64.80372446791263
 20
-13.99975680205545
 30
0.0
 10
64.80372446791263
 20
-10.54775569180725
 30
0.0
 10
67.60216939651835
 20
-7.749663470284592
 30
0.0
 10
71.0538176417928
 20
-7.749663470284592
 30
0.0
 10
74.50546588706726
 20
-7.749663470284592
 30
0.0
 10
77.30391081567298
 20
-10.54775569180725
 30
0.0
 10
77.30391081567298
 20
-13.99975680205545
 30
0.0
  0
POLYLINE
  5
62
330
1F
100
AcDbEntity
  8
Layer 1
 62
   179
420
  2301728
370
     9
100
AcDb2dPolyline
 66
     1
 10
0.0
 20
0.0
 30
0.0
  0
VERTEX
  5
63
330
62
100
AcDbEntity
  8
Layer 1
 62
   179
420
  2301728
370
     9
100
AcDbVertex
100
AcDb2dVertex
 10
71.0538176417928
 20
-11.49965596934706
 30
0.0
  0
VERTEX
  5
64
330
62
100
AcDbEntity
  8
Layer 1
 62
   179
420
  2301728
370
     9
100
AcDbVertex
100
AcDb2dVertex
 10
71.0538176417928
 20
-16.49985763476385
 30
0.0
  0
SEQEND
  5
65
330
62
100
AcDbEntity
  8
Layer 1
 62
   179
420
  2301728
370
     9
  0
POLYLINE
  5
66
330
1F
100
AcDbEntity
  8
Layer 1
 62
   179
420
  2301728
370
     9
100
AcDb2dPolyline
 66
     1
 10
0.0
 20
0.0
 30
0.0
  0
VERTEX
  5
67
330
66
100
AcDbEntity
  8
Layer 1
 62
   179
420
  2301728
370
     9
100
AcDbVertex
100
AcDb2dVertex
 10
73.5539218661989
 20
-13.99940402427769
 30
0.0
  0
VERTEX
  5
68
330
66
100
AcDbEntity
  8
Layer 1
 62
   179
420
  2301728
370
     9
100
AcDbVertex
100
AcDb2dVertex
 10
68.55371687224236
 20
-13.99940402427769
 30
0.0
  0
SEQEND
  5
69
330
66
100
AcDbEntity
  8
Layer 1
 62
   179
420
  2301728
370
     9
  0
SPLINE
  5
6A
330
1F
100
AcDbEntity
  8
Layer 1
 62
   179
420
  2301728
370
     9
100
AcDbSpline
210
0.0
220
0.0
230
1.0
 70
    11
 71
     3
 72
    17
 73
    13
 74
     0
 42
0.0000000001
 43
0.0000000001
 12
1.0
 22
0.0
 32
0.0
 13
1.0
 23
0.0
 33
0.0
 40
0.0
 40
0.0
 40
0.0
 40
0.0
 40
1.0
 40
1.0
 40
1.0
 40
2.0
 40
2.0
 40
2.0
 40
3.0
 40
3.0
 40
3.0
 40
4.0
 40
4.0
 40
4.0
 40
4.0
 10
99.30394386551649
 20
-35.9997904076668
 30
0.0
 10
99.30394386551649
 20
-39.45143874013724
 30
0.0
 10
96.50549893691077
 20
-42.2495309616599
 30
0.0
 10
93.05385069163631
 20
-42.2495309616599
 30
0.0
 10
89.60220244636186
 20
-42.2495309616599
 30
0.0
 10
86.80375751775614
 20
-39.45143874013724
 30
0.0
 10
86.80375751775614
 20
-35.9997904076668
 30
0.0
 10
86.80375751775614
 20
-32.5477892974186
 30
0.0
 10
89.60220244636186
 20
-29.74969707589594
 30
0.0
 10
93.05385069163631
 20
-29.74969707589594
 30
0.0
 10
96.50549893691077
 20
-29.74969707589594
 30
0.0
 10
99.30394386551649
 20
-32.5477892974186
 30
0.0
 10
99.30394386551649
 20
-35.9997904076668
 30
0.0
  0
POLYLINE
  5
6B
330
1F
100
AcDbEntity
  8
Layer 1
 62
   179
420
  2301728
370
     9
100
AcDb2dPolyline
 66
     1
 10
0.0
 20
0.0
 30
0.0
  0
VERTEX
  5
6C
330
6B
100
AcDbEntity
  8
Layer 1
 62
   179
420
  2301728
370
     9
100
AcDbVertex
100
AcDb2dVertex
 10
93.05385069163631
 20
-33.49968957495841
 30
0.0
  0
VERTEX
  5
6D
330
6B
100
AcDbEntity
  8
Layer 1
 62
   179
420
  2301728
370
     9
100
AcDbVertex
100
AcDb2dVertex
 10
93.05385069163631
 20
-38.49989124037519
 30
0.0
  0
SEQEND
  5
6E
330
6B
100
AcDbEntity
  8
Layer 1
 62
   179
420
  2301728
370
     9
  0
POLYLINE
  5
6F
330
1F
100
AcDbEntity
  8
Layer 1
 62
   179
420
  2301728
370
     9
100
AcDb2dPolyline
 66
     1
 10
0.0
 20
0.0
 30
0.0
  0
VERTEX
  5
70
330
6F
100
AcDbEntity
  8
Layer 1
 62
   179
420
  2301728
370
     9
100
AcDbVertex
100
AcDb2dVertex
 10
95.55395146118676
 20
-35.99943762988904
 30
0.0
  0
VERTEX
  5
71
330
6F
100
AcDbEntity
  8
Layer 1
 62
   179
420
  2301728
370
     9
100
AcDbVertex
100
AcDb2dVertex
 10
90.55374992208587
 20
-35.99943762988904
 30
0.0
  0
SEQEND
  5
72
330
6F
100
AcDbEntity
  8
Layer 1
 62
   179
420
  2301728
370
     9
  0
POLYLINE
  5
73
330
1F
100
AcDbEntity
  8
Layer 1
370
     0
100
AcDb2dPolyline
 66
     1
 10
0.0
 20
0.0
 30
0.0
  0
VERTEX
  5
74
330
73
100
AcDbEntity
  8
Layer 1
370
     0
100
AcDbVertex
100
AcDb2dVertex
 10
83.32434723503468
 20
-26.26959721565488
 30
0.0
  0
VERTEX
  5
75
330
73
100
AcDbEntity
  8
Layer 1
370
     0
100
AcDbVertex
100
AcDb2dVertex
 10
80.78434723566941
 20
-26.26959721565488
 30
0.0
  0
VERTEX
  5
76
330
73
100
AcDbEntity
  8
Layer 1
370
     0
100
AcDbVertex
100
AcDb2dVertex
 10
80.78434723566941
 20
-23.72959721628962
 30
0.0
  0
VERTEX
  5
77
330
73
100
AcDbEntity
  8
Layer 1
370
     0
100
AcDbVertex
100
AcDb2dVertex
 10
83.32434723503468
 20
-23.72959721628962
 30
0.0
  0
VERTEX
  5
78
330
73
100
AcDbEntity
  8
Layer 1
370
     0
100
AcDbVertex
100
AcDb2dVertex
 10
83.32434723503468
 20
-26.26959721565488
 30
0.0
  0
SEQEND
  5
79
330
73
100
AcDbEntity
  8
Layer 1
370
     0
  0
POLYLINE
  5
7A
330
1F
100
AcDbEntity
  8
Layer 1
370
     0
100
AcDb2dPolyline
 66
     1
 10
0.0
 20
0.0
 30
0.0
  0
VERTEX
  5
7B
330
7A
100
AcDbEntity
  8
Layer 1
370
     0
100
AcDbVertex
100
AcDb2dVertex
 10
80.7843473029567
 20
-26.26959721560867
 30
0.0
  0
VERTEX
  5
7C
330
7A
100
AcDbEntity
  8
Layer 1
370
     0
100
AcDbVertex
100
AcDb2dVertex
 10
78.24434730359144
 20
-26.26959721560867
 30
0.0
  0
VERTEX
  5
7D
330
7A
100
AcDbEntity
  8
Layer 1
370
     0
100
AcDbVertex
100
AcDb2dVertex
 10
78.24434730359144
 20
-23.72959721624342
 30
0.0
  0
VERTEX
  5
7E
330
7A
100
AcDbEntity
  8
Layer 1
370
     0
100
AcDbVertex
100
AcDb2dVertex
 10
80.7843473029567
 20
-23.72959721624342
 30
0.0
  0
VERTEX
  5
7F
330
7A
100
AcDbEntity
  8
Layer 1
370
     0
100
AcDbVertex
100
AcDb2dVertex
 10
80.7843473029567
 20
-26.26959721560867
 30
0.0
  0
SEQEND
  5
80
330
7A
100
AcDbEntity
  8
Layer 1
370
     0
  0
POLYLINE
  5
81
330
1F
100
AcDbEntity
  8
Layer 1
370
     0
100
AcDb2dPolyline
 66
     1
 10
0.0
 20
0.0
 30
0.0
  0
VERTEX
  5
82
330
81
100
AcDbEntity
  8
Layer 1
370
     0
100
AcDbVertex
100
AcDb2dVertex
 10
84.55434723472744
 20
-27.499597215347
 30
0.0
  0
VERTEX
  5
83
330
81
100
AcDbEntity
  8
Layer 1
370
     0
100
AcDbVertex
100
AcDb2dVertex
 10
79.55434723597665
 20
-27.499597215347
 30
0.0
  0
VERTEX
  5
84
330
81
100
AcDbEntity
  8
Layer 1
370
     0
100
AcDbVertex
100
AcDb2dVertex
 10
79.55434723597665
 20
-22.49959721659749
 30
0.0
  0
VERTEX
  5
85
330
81
100
AcDbEntity
  8
Layer 1
370
     0
100
AcDbVertex
100
AcDb2dVertex
 10
84.55434723472744
 20
-22.49959721659749
 30
0.0
  0
VERTEX
  5
86
330
81
100
AcDbEntity
  8
Layer 1
370
     0
100
AcDbVertex
100
AcDb2dVertex
 10
84.55434723472744
 20
-27.499597215347
 30
0.0
  0
SEQEND
  5
87
330
81
100
AcDbEntity
  8
Layer 1
370
     0
  0
POLYLINE
  5
88
330
1F
100
AcDbEntity
  8
Layer 1
370
     0
100
AcDb2dPolyline
 66
     1
 10
0.0
 20
0.0
 30
0.0
  0
VERTEX
  5
89
330
88
100
AcDbEntity
  8
Layer 1
370
     0
100
AcDbVertex
100
AcDb2dVertex
 10
60.05360708909822
 20
-27.499597215347
 30
0.0
  0
VERTEX
  5
8A
330
88
100
AcDbEntity
  8
Layer 1
370
     0
100
AcDbVertex
100
AcDb2dVertex
 10
79.55434723597665
 20
-27.499597215347
 30
0.0
  0
VERTEX
  5
8B
330
88
100
AcDbEntity
  8
Layer 1
370
     0
100
AcDbVertex
100
AcDb2dVertex
 10
79.55434723597665
 20
-22.49959721659749
 30
0.0
  0
VERTEX
  5
8C
330
88
100
AcDbEntity
  8
Layer 1
370
     0
100
AcDbVertex
100
AcDb2dVertex
 10
60.05360708909822
 20
-22.49959721659749
 30
0.0
  0
VERTEX
  5
8D
330
88
100
AcDbEntity
  8
Layer 1
370
     0
100
AcDbVertex
100
AcDb2dVertex
 10
60.05360708909822
 20
-27.499597215347
 30
0.0
  0
SEQEND
  5
8E
330
88
100
AcDbEntity
  8
Layer 1
370
     0
  0
INSERT
  5
90
330
1F
100
AcDbEntity
  8
Layer 1
100
AcDbBlockReference
  2
block 2
 10
0.0
 20
0.0
 30
0.0
  0
SPLINE
  5
CC
330
1F
100
AcDbEntity
  8
Layer 1
370
     0
100
AcDbSpline
210
0.0
220
0.0
230
1.0
 70
    11
 71
     3
 72
    17
 73
    13
 74
     0
 42
0.0000000001
 43
0.0000000001
 12
1.0
 22
0.0
 32
0.0
 13
1.0
 23
0.0
 33
0.0
 40
0.0
 40
0.0
 40
0.0
 40
0.0
 40
1.0
 40
1.0
 40
1.0
 40
2.0
 40
2.0
 40
2.0
 40
3.0
 40
3.0
 40
3.0
 40
4.0
 40
4.0
 40
4.0
 40
4.0
 10
81.28434723172973
 20
-23.72959723938982
 30
0.0
 10
81.28434723172973
 20
-24.00573961422091
 30
0.0
 10
81.0604896066856
 20
-24.22959723926503
 30
0.0
 10
80.78434723185516
 20
-24.22959723926503
 30
0.0
 10
80.50820485702407
 20
-24.22959723926503
 30
0.0
 10
80.28434723197995
 20
-24.00573961422091
 30
0.0
 10
80.28434723197995
 20
-23.72959723938982
 30
0.0
 10
80.28434723197995
 20
-23.45345486455905
 30
0.0
 10
80.50820485702407
 20
-23.22959723951493
 30
0.0
 10
80.78434723185516
 20
-23.22959723951493
 30
0.0
 10
81.0604896066856
 20
-23.22959723951493
 30
0.0
 10
81.28434723172973
 20
-23.45345486455905
 30
0.0
 10
81.28434723172973
 20
-23.72959723938982
 30
0.0
  0
SPLINE
  5
CD
330
1F
100
AcDbEntity
  8
Layer 1
370
     0
100
AcDbSpline
210
0.0
220
0.0
230
1.0
 70
    11
 71
     3
 72
    17
 73
    13
 74
     0
 42
0.0000000001
 43
0.0000000001
 12
1.0
 22
0.0
 32
0.0
 13
1.0
 23
0.0
 33
0.0
 40
0.0
 40
0.0
 40
0.0
 40
0.0
 40
1.0
 40
1.0
 40
1.0
 40
2.0
 40
2.0
 40
2.0
 40
3.0
 40
3.0
 40
3.0
 40
4.0
 40
4.0
 40
4.0
 40
4.0
 10
83.8243471638077
 20
-23.7295972393895
 30
0.0
 10
83.8243471638077
 20
-24.00573961422124
 30
0.0
 10
83.6004895387636
 20
-24.22959723926535
 30
0.0
 10
83.32434716393314
 20
-24.22959723926535
 30
0.0
 10
83.04820478910204
 20
-24.22959723926535
 30
0.0
 10
82.82434716405793
 20
-24.00573961422124
 30
0.0
 10
82.82434716405793
 20
-23.7295972393895
 30
0.0
 10
82.82434716405793
 20
-23.45345486455905
 30
0.0
 10
83.04820478910204
 20
-23.22959723951493
 30
0.0
 10
83.32434716393314
 20
-23.22959723951493
 30
0.0
 10
83.6004895387636
 20
-23.22959723951493
 30
0.0
 10
83.8243471638077
 20
-23.45345486455905
 30
0.0
 10
83.8243471638077
 20
-23.7295972393895
 30
0.0
  0
SPLINE
  5
CE
330
1F
100
AcDbEntity
  8
Layer 1
370
     0
100
AcDbSpline
210
0.0
220
0.0
230
1.0
 70
    11
 71
     3
 72
    17
 73
    13
 74
     0
 42
0.0000000001
 43
0.0000000001
 12
1.0
 22
0.0
 32
0.0
 13
1.0
 23
0.0
 33
0.0
 40
0.0
 40
0.0
 40
0.0
 40
0.0
 40
1.0
 40
1.0
 40
1.0
 40
2.0
 40
2.0
 40
2.0
 40
3.0
 40
3.0
 40
3.0
 40
4.0
 40
4.0
 40
4.0
 40
4.0
 10
81.28434723172973
 20
-26.26959723454906
 30
0.0
 10
81.28434723172973
 20
-26.5457396093808
 30
0.0
 10
81.0604896066856
 20
-26.76959723442491
 30
0.0
 10
80.78434723185516
 20
-26.76959723442491
 30
0.0
 10
80.50820485702407
 20
-26.76959723442491
 30
0.0
 10
80.28434723197995
 20
-26.5457396093808
 30
0.0
 10
80.28434723197995
 20
-26.26959723454906
 30
0.0
 10
80.28434723197995
 20
-25.99345485971861
 30
0.0
 10
80.50820485702407
 20
-25.7695972346745
 30
0.0
 10
80.78434723185516
 20
-25.7695972346745
 30
0.0
 10
81.0604896066856
 20
-25.7695972346745
 30
0.0
 10
81.28434723172973
 20
-25.99345485971861
 30
0.0
 10
81.28434723172973
 20
-26.26959723454906
 30
0.0
  0
SPLINE
  5
CF
330
1F
100
AcDbEntity
  8
Layer 1
370
     0
100
AcDbSpline
210
0.0
220
0.0
230
1.0
 70
    11
 71
     3
 72
    17
 73
    13
 74
     0
 42
0.0000000001
 43
0.0000000001
 12
1.0
 22
0.0
 32
0.0
 13
1.0
 23
0.0
 33
0.0
 40
0.0
 40
0.0
 40
0.0
 40
0.0
 40
1.0
 40
1.0
 40
1.0
 40
2.0
 40
2.0
 40
2.0
 40
3.0
 40
3.0
 40
3.0
 40
4.0
 40
4.0
 40
4.0
 40
4.0
 10
83.8243471638077
 20
-26.26959723454906
 30
0.0
 10
83.8243471638077
 20
-26.5457396093808
 30
0.0
 10
83.6004895387636
 20
-26.76959723442491
 30
0.0
 10
83.32434716393314
 20
-26.76959723442491
 30
0.0
 10
83.04820478910204
 20
-26.76959723442491
 30
0.0
 10
82.82434716405793
 20
-26.5457396093808
 30
0.0
 10
82.82434716405793
 20
-26.26959723454906
 30
0.0
 10
82.82434716405793
 20
-25.99345485971861
 30
0.0
 10
83.04820478910204
 20
-25.7695972346745
 30
0.0
 10
83.32434716393314
 20
-25.7695972346745
 30
0.0
 10
83.6004895387636
 20
-25.7695972346745
 30
0.0
 10
83.8243471638077
 20
-25.99345485971861
 30
0.0
 10
83.8243471638077
 20
-26.26959723454906
 30
0.0
  0
POLYLINE
  5
D0
330
1F
100
AcDbEntity
  8
Layer 1
370
     0
100
AcDb2dPolyline
 66
     1
 10
0.0
 20
0.0
 30
0.0
  0
VERTEX
  5
D1
330
D0
100
AcDbEntity
  8
Layer 1
370
     0
100
AcDbVertex
100
AcDb2dVertex
 10
65.40382551963509
 20
-28.4995592919201
 30
0.0
  0
VERTEX
  5
D2
330
D0
100
AcDbEntity
  8
Layer 1
370
     0
100
AcDbVertex
100
AcDb2dVertex
 10
85.39986909214831
 20
-28.4995592919201
 30
0.0
  0
VERTEX
  5
D3
330
D0
100
AcDbEntity
  8
Layer 1
370
     0
100
AcDbVertex
100
AcDb2dVertex
 10
85.39986909214831
 20
-21.4996351400244
 30
0.0
  0
VERTEX
  5
D4
330
D0
100
AcDbEntity
  8
Layer 1
370
     0
100
AcDbVertex
100
AcDb2dVertex
 10
65.40382551963509
 20
-21.4996351400244
 30
0.0
  0
VERTEX
  5
D5
330
D0
100
AcDbEntity
  8
Layer 1
370
     0
100
AcDbVertex
100
AcDb2dVertex
 10
65.40382551963509
 20
-28.4995592919201
 30
0.0
  0
SEQEND
  5
D6
330
D0
100
AcDbEntity
  8
Layer 1
370
     0
  0
ENDSEC
  0
SECTION
  2
OBJECTS
  0
DICTIONARY
  5
C
330
0
100
AcDbDictionary
281
     1
  3
ACAD_GROUP
350
D
  3
ACAD_LAYOUT
350
1A
  3
ACAD_MATERIAL
350
3B
  3
ACAD_MLEADERSTYLE
350
D8
  3
ACAD_MLINESTYLE
350
17
  3
ACAD_PLOTSETTINGS
350
19
  3
ACAD_PLOTSTYLENAME
350
E
  3
ACAD_TABLESTYLE
350
D7
  3
ACAD_VISUALSTYLE
350
2A
  0
SUN
  5
3F
330
29
100
AcDbSun
 90
        1
290
     0
 63
     7
421
 16777215
 40
1.0
291
     1
 91
  2455826
 92
 54000000
292
     0
 70
     2
 71
   256
280
     1
  0
DICTIONARY
  5
D
102
{ACAD_REACTORS
330
C
102
}
330
C
100
AcDbDictionary
281
     1
  0
DICTIONARY
  5
1A
102
{ACAD_REACTORS
330
C
102
}
330
C
100
AcDbDictionary
281
     1
  3
Layout1
350
1E
  3
Layout2
350
26
  3
Model
350
22
  0
DICTIONARY
  5
3B
102
{ACAD_REACTORS
330
C
102
}
330
C
100
AcDbDictionary
281
     1
  3
ByBlock
350
3D
  3
ByLayer
350
3C
  3
Global
350
3E
  0
DICTIONARY
  5
D8
102
{ACAD_REACTORS
330
C
102
}
330
C
100
AcDbDictionary
281
     1
  0
DICTIONARY
  5
17
102
{ACAD_REACTORS
330
C
102
}
330
C
100
AcDbDictionary
281
     1
  3
Standard
350
18
  0
DICTIONARY
  5
19
102
{ACAD_REACTORS
330
C
102
}
330
C
100
AcDbDictionary
281
     1
  0
ACDBDICTIONARYWDFLT
  5
E
102
{ACAD_REACTORS
330
C
102
}
330
C
100
AcDbDictionary
281
     1
  3
Normal
350
F
100
AcDbDictionaryWithDefault
340
F
  0
DICTIONARY
  5
D7
102
{ACAD_REACTORS
330
C
102
}
330
C
100
AcDbDictionary
281
     1
  0
DICTIONARY
  5
2A
102
{ACAD_REACTORS
330
C
102
}
330
C
100
AcDbDictionary
281
     1
  3
2dWireframe
350
2F
  3
3D Hidden
350
31
  3
3dWireframe
350
30
  3
Basic
350
32
  3
Brighten
350
36
  3
ColorChange
350
3A
  3
Conceptual
350
34
  3
Dim
350
35
  3
Facepattern
350
39
  3
Flat
350
2B
  3
FlatWithEdges
350
2C
  3
Gouraud
350
2D
  3
GouraudWithEdges
350
2E
  3
Linepattern
350
38
  3
Realistic
350
33
  3
Thicken
350
37
  0
LAYOUT
  5
1E
102
{ACAD_REACTORS
330
1A
102
}
330
1A
100
AcDbPlotSettings
  1

  2
none_device
  4

  6

 40
0.0
 41
0.0
 42
0.0
 43
0.0
 44
0.0
 45
0.0
 46
0.0
 47
0.0
 48
0.0
 49
0.0
140
0.0
141
0.0
142
1.0
143
1.0
 70
   688
 72
     0
 73
     0
 74
     5
  7

 75
    16
 76
     0
 77
     2
 78
   300
147
1.0
148
0.0
149
0.0
100
AcDbLayout
  1
Layout1
 70
     1
 71
     1
 10
0.0
 20
0.0
 11
12.0
 21
9.0
 12
0.0
 22
0.0
 32
0.0
 14
1.000000000000000E+20
 24
1.000000000000000E+20
 34
1.000000000000000E+20
 15
-1.000000000000000E+20
 25
-1.000000000000000E+20
 35
-1.000000000000000E+20
146
0.0
 13
0.0
 23
0.0
 33
0.0
 16
1.0
 26
0.0
 36
0.0
 17
0.0
 27
1.0
 37
0.0
 76
     0
330
1B
  0
LAYOUT
  5
26
102
{ACAD_REACTORS
330
1A
102
}
330
1A
100
AcDbPlotSettings
  1

  2
none_device
  4

  6

 40
0.0
 41
0.0
 42
0.0
 43
0.0
 44
0.0
 45
0.0
 46
0.0
 47
0.0
 48
0.0
 49
0.0
140
0.0
141
0.0
142
1.0
143
1.0
 70
   688
 72
     0
 73
     0
 74
     5
  7

 75
    16
 76
     0
 77
     2
 78
   300
147
1.0
148
0.0
149
0.0
100
AcDbLayout
  1
Layout2
 70
     1
 71
     2
 10
0.0
 20
0.0
 11
0.0
 21
0.0
 12
0.0
 22
0.0
 32
0.0
 14
0.0
 24
0.0
 34
0.0
 15
0.0
 25
0.0
 35
0.0
146
0.0
 13
0.0
 23
0.0
 33
0.0
 16
1.0
 26
0.0
 36
0.0
 17
0.0
 27
1.0
 37
0.0
 76
     0
330
23
  0
LAYOUT
  5
22
102
{ACAD_REACTORS
330
1A
102
}
330
1A
100
AcDbPlotSettings
  1

  2
none_device
  4

  6

 40
0.0
 41
0.0
 42
0.0
 43
0.0
 44
0.0
 45
0.0
 46
0.0
 47
0.0
 48
0.0
 49
0.0
140
0.0
141
0.0
142
1.0
143
1.0
 70
  1712
 72
     0
 73
     0
 74
     0
  7

 75
     0
 76
     0
 77
     2
 78
   300
147
1.0
148
0.0
149
0.0
100
AcDbLayout
  1
Model
 70
     1
 71
     0
 10
0.0
 20
0.0
 11
12.0
 21
9.0
 12
0.0
 22
0.0
 32
0.0
 14
1.000000000000000E+20
 24
1.000000000000000E+20
 34
1.000000000000000E+20
 15
-1.000000000000000E+20
 25
-1.000000000000000E+20
 35
-1.000000000000000E+20
146
0.0
 13
0.0
 23
0.0
 33
0.0
 16
1.0
 26
0.0
 36
0.0
 17
0.0
 27
1.0
 37
0.0
 76
     0
330
1F
331
29
  0
MATERIAL
  5
3D
102
{ACAD_REACTORS
330
3B
102
}
330
3B
100
AcDbMaterial
  1
ByBlock
 72
     1
 94
      127
  0
MATERIAL
  5
3C
102
{ACAD_REACTORS
330
3B
102
}
330
3B
100
AcDbMaterial
  1
ByLayer
 72
     1
 94
      127
  0
MATERIAL
  5
3E
102
{ACAD_REACTORS
330
3B
102
}
330
3B
100
AcDbMaterial
  1
Global
 72
     1
 94
      127
  0
MLINESTYLE
  5
18
102
{ACAD_REACTORS
330
17
102
}
330
17
100
AcDbMlineStyle
  2
Standard
 70
     0
  3

 62
   256
 51
90.0
 52
90.0
 71
     2
 49
0.5
 62
   256
  6
BYLAYER
 49
-0.5
 62
   256
  6
BYLAYER
  0
ACDBPLACEHOLDER
  5
F
102
{ACAD_REACTORS
330
E
102
}
330
E
  0
VISUALSTYLE
  5
2F
102
{ACAD_REACTORS
330
2A
102
}
330
2A
100
AcDbVisualStyle
  2
2dWireframe
 70
     4
177
     2
291
     0
 71
     0
176
     1
 72
     2
176
     1
 73
     0
176
     1
 90
        0
176
     1
 40
-0.6
176
     1
 41
-30.0
176
     1
 62
     5
 63
     7
421
 16777215
176
     1
 74
     1
176
     1
 91
        4
176
     1
 64
     7
176
     1
 65
   257
176
     1
 75
     1
176
     1
175
     1
176
     1
 42
1.0
176
     1
 92
        0
176
     1
 66
   257
176
     1
 43
1.0
176
     1
 76
     1
176
     1
 77
     6
176
     1
 78
     2
176
     1
 67
     7
176
     1
 79
     5
176
     1
170
     0
176
     1
171
     0
176
     1
290
     0
176
     1
 93
        1
176
     1
 44
0.0
176
     1
173
     0
176
     1
  0
VISUALSTYLE
  5
31
102
{ACAD_REACTORS
330
2A
102
}
330
2A
100
AcDbVisualStyle
  2
3D Hidden
 70
     6
177
     2
291
     0
 71
     1
176
     1
 72
     2
176
     1
 73
     2
176
     1
 90
        0
176
     1
 40
-0.6
176
     1
 41
-30.0
176
     1
 62
     5
 63
     7
421
 16777215
176
     1
 74
     2
176
     1
 91
        2
176
     1
 64
     7
176
     1
 65
   257
176
     1
 75
     2
176
     1
175
     1
176
     1
 42
40.0
176
     1
 92
        0
176
     1
 66
   257
176
     1
 43
1.0
176
     1
 76
     1
176
     1
 77
     6
176
     1
 78
     2
176
     1
 67
     7
176
     1
 79
     3
176
     1
170
     0
176
     1
171
     0
176
     1
290
     0
176
     1
 93
        1
176
     1
 44
0.0
176
     1
173
     0
176
     1
  0
VISUALSTYLE
  5
30
102
{ACAD_REACTORS
330
2A
102
}
330
2A
100
AcDbVisualStyle
  2
3dWireframe
 70
     5
177
     2
291
     0
 71
     0
176
     1
 72
     2
176
     1
 73
     0
176
     1
 90
        0
176
     1
 40
-0.6
176
     1
 41
-30.0
176
     1
 62
     5
 63
     7
421
 16777215
176
     1
 74
     1
176
     1
 91
        4
176
     1
 64
     7
176
     1
 65
   257
176
     1
 75
     1
176
     1
175
     1
176
     1
 42
1.0
176
     1
 92
        0
176
     1
 66
   257
176
     1
 43
1.0
176
     1
 76
     1
176
     1
 77
     6
176
     1
 78
     2
176
     1
 67
     7
176
     1
 79
     5
176
     1
170
     0
176
     1
171
     0
176
     1
290
     0
176
     1
 93
        1
176
     1
 44
0.0
176
     1
173
     0
176
     1
  0
VISUALSTYLE
  5
32
102
{ACAD_REACTORS
330
2A
102
}
330
2A
100
AcDbVisualStyle
  2
Basic
 70
     7
177
     2
291
     1
 71
     1
176
     1
 72
     0
176
     1
 73
     1
176
     1
 90
        0
176
     1
 40
-0.6
176
     1
 41
-30.0
176
     1
 62
     5
 63
     7
421
 16777215
176
     1
 74
     0
176
     1
 91
        4
176
     1
 64
     7
176
     1
 65
   257
176
     1
 75
     1
176
     1
175
     1
176
     1
 42
1.0
176
     1
 92
        8
176
     1
 66
     7
176
     1
 43
1.0
176
     1
 76
     1
176
     1
 77
     6
176
     1
 78
     2
176
     1
 67
     7
176
     1
 79
     5
176
     1
170
     0
176
     1
171
     0
176
     1
290
     0
176
     1
 93
        1
176
     1
 44
0.0
176
     1
173
     0
176
     1
  0
VISUALSTYLE
  5
36
102
{ACAD_REACTORS
330
2A
102
}
330
2A
100
AcDbVisualStyle
  2
Brighten
 70
    12
177
     2
291
     1
 71
     2
176
     1
 72
     2
176
     1
 73
     0
176
     1
 90
        0
176
     1
 40
-0.6
176
     1
 41
-30.0
176
     1
 62
     5
 63
     7
421
 16777215
176
     1
 74
     1
176
     1
 91
        4
176
     1
 64
     7
176
     1
 65
   257
176
     1
 75
     1
176
     1
175
     1
176
     1
 42
1.0
176
     1
 92
        8
176
     1
 66
     7
176
     1
 43
1.0
176
     1
 76
     1
176
     1
 77
     6
176
     1
 78
     2
176
     1
 67
     7
176
     1
 79
     5
176
     1
170
     0
176
     1
171
     0
176
     1
290
     0
176
     1
 93
        1
176
     1
 44
50.0
176
     1
173
     0
176
     1
  0
VISUALSTYLE
  5
3A
102
{ACAD_REACTORS
330
2A
102
}
330
2A
100
AcDbVisualStyle
  2
ColorChange
 70
    16
177
     2
291
     1
 71
     2
176
     1
 72
     2
176
     1
 73
     3
176
     1
 90
        0
176
     1
 40
-0.6
176
     1
 41
-30.0
176
     1
 62
     5
 63
     8
421
  8421504
176
     1
 74
     1
176
     1
 91
        4
176
     1
 64
     7
176
     1
 65
   257
176
     1
 75
     1
176
     1
175
     1
176
     1
 42
1.0
176
     1
 92
        8
176
     1
 66
     8
424
  8421504
176
     1
 43
1.0
176
     1
 76
     1
176
     1
 77
     6
176
     1
 78
     2
176
     1
 67
     7
176
     1
 79
     5
176
     1
170
     0
176
     1
171
     0
176
     1
290
     0
176
     1
 93
        1
176
     1
 44
0.0
176
     1
173
     0
176
     1
  0
VISUALSTYLE
  5
34
102
{ACAD_REACTORS
330
2A
102
}
330
2A
100
AcDbVisualStyle
  2
Conceptual
 70
     9
177
     2
291
     0
 71
     3
176
     1
 72
     2
176
     1
 73
     0
176
     1
 90
        0
176
     1
 40
-0.6
176
     1
 41
-30.0
176
     1
 62
     5
 63
     7
421
 16777215
176
     1
 74
     2
176
     1
 91
        2
176
     1
 64
     7
176
     1
 65
   257
176
     1
 75
     1
176
     1
175
     1
176
     1
 42
40.0
176
     1
 92
        8
176
     1
 66
     7
176
     1
 43
1.0
176
     1
 76
     1
176
     1
 77
     6
176
     1
 78
     2
176
     1
 67
     7
176
     1
 79
     3
176
     1
170
     0
176
     1
171
     0
176
     1
290
     0
176
     1
 93
        1
176
     1
 44
0.0
176
     1
173
     0
176
     1
  0
VISUALSTYLE
  5
35
102
{ACAD_REACTORS
330
2A
102
}
330
2A
100
AcDbVisualStyle
  2
Dim
 70
    11
177
     2
291
     1
 71
     2
176
     1
 72
     2
176
     1
 73
     0
176
     1
 90
        0
176
     1
 40
-0.6
176
     1
 41
-30.0
176
     1
 62
     5
 63
     7
421
 16777215
176
     1
 74
     1
176
     1
 91
        4
176
     1
 64
     7
176
     1
 65
   257
176
     1
 75
     1
176
     1
175
     1
176
     1
 42
1.0
176
     1
 92
        8
176
     1
 66
     7
176
     1
 43
1.0
176
     1
 76
     1
176
     1
 77
     6
176
     1
 78
     2
176
     1
 67
     7
176
     1
 79
     5
176
     1
170
     0
176
     1
171
     0
176
     1
290
     0
176
     1
 93
        1
176
     1
 44
-50.0
176
     1
173
     0
176
     1
  0
VISUALSTYLE
  5
39
102
{ACAD_REACTORS
330
2A
102
}
330
2A
100
AcDbVisualStyle
  2
Facepattern
 70
    15
177
     2
291
     1
 71
     2
176
     1
 72
     2
176
     1
 73
     0
176
     1
 90
        0
176
     1
 40
-0.6
176
     1
 41
-30.0
176
     1
 62
     5
 63
     7
421
 16777215
176
     1
 74
     1
176
     1
 91
        4
176
     1
 64
     7
176
     1
 65
   257
176
     1
 75
     1
176
     1
175
     1
176
     1
 42
1.0
176
     1
 92
        8
176
     1
 66
     7
176
     1
 43
1.0
176
     1
 76
     1
176
     1
 77
     6
176
     1
 78
     2
176
     1
 67
     7
176
     1
 79
     5
176
     1
170
     0
176
     1
171
     0
176
     1
290
     0
176
     1
 93
        1
176
     1
 44
0.0
176
     1
173
     0
176
     1
  0
VISUALSTYLE
  5
2B
102
{ACAD_REACTORS
330
2A
102
}
330
2A
100
AcDbVisualStyle
  2
Flat
 70
     0
177
     2
291
     1
 71
     2
176
     1
 72
     1
176
     1
 73
     1
176
     1
 90
        2
176
     1
 40
-0.6
176
     1
 41
30.0
176
     1
 62
     5
 63
     7
421
 16777215
176
     1
 74
     0
176
     1
 91
        4
176
     1
 64
     7
176
     1
 65
   257
176
     1
 75
     1
176
     1
175
     1
176
     1
 42
1.0
176
     1
 92
        8
176
     1
 66
     7
176
     1
 43
1.0
176
     1
 76
     1
176
     1
 77
     6
176
     1
 78
     2
176
     1
 67
     7
176
     1
 79
     5
176
     1
170
     0
176
     1
171
     0
176
     1
290
     0
176
     1
 93
       13
176
     1
 44
0.0
176
     1
173
     0
176
     1
  0
VISUALSTYLE
  5
2C
102
{ACAD_REACTORS
330
2A
102
}
330
2A
100
AcDbVisualStyle
  2
FlatWithEdges
 70
     1
177
     2
291
     1
 71
     2
176
     1
 72
     1
176
     1
 73
     1
176
     1
 90
        2
176
     1
 40
-0.6
176
     1
 41
30.0
176
     1
 62
     5
 63
     7
421
 16777215
176
     1
 74
     1
176
     1
 91
        4
176
     1
 64
     7
176
     1
 65
   257
176
     1
 75
     1
176
     1
175
     1
176
     1
 42
1.0
176
     1
 92
        0
176
     1
 66
   257
176
     1
 43
1.0
176
     1
 76
     1
176
     1
 77
     6
176
     1
 78
     2
176
     1
 67
     7
176
     1
 79
     5
176
     1
170
     0
176
     1
171
     0
176
     1
290
     0
176
     1
 93
       13
176
     1
 44
0.0
176
     1
173
     0
176
     1
  0
VISUALSTYLE
  5
2D
102
{ACAD_REACTORS
330
2A
102
}
330
2A
100
AcDbVisualStyle
  2
Gouraud
 70
     2
177
     2
291
     1
 71
     2
176
     1
 72
     2
176
     1
 73
     1
176
     1
 90
        2
176
     1
 40
-0.6
176
     1
 41
30.0
176
     1
 62
     5
 63
     7
421
 16777215
176
     1
 74
     0
176
     1
 91
        4
176
     1
 64
     7
176
     1
 65
   257
176
     1
 75
     1
176
     1
175
     1
176
     1
 42
1.0
176
     1
 92
        0
176
     1
 66
     7
176
     1
 43
1.0
176
     1
 76
     1
176
     1
 77
     6
176
     1
 78
     2
176
     1
 67
     7
176
     1
 79
     5
176
     1
170
     0
176
     1
171
     0
176
     1
290
     0
176
     1
 93
       13
176
     1
 44
0.0
176
     1
173
     0
176
     1
  0
VISUALSTYLE
  5
2E
102
{ACAD_REACTORS
330
2A
102
}
330
2A
100
AcDbVisualStyle
  2
GouraudWithEdges
 70
     3
177
     2
291
     1
 71
     2
176
     1
 72
     2
176
     1
 73
     1
176
     1
 90
        2
176
     1
 40
-0.6
176
     1
 41
30.0
176
     1
 62
     5
 63
     7
421
 16777215
176
     1
 74
     1
176
     1
 91
        4
176
     1
 64
     7
176
     1
 65
   257
176
     1
 75
     1
176
     1
175
     1
176
     1
 42
1.0
176
     1
 92
        0
176
     1
 66
   257
176
     1
 43
1.0
176
     1
 76
     1
176
     1
 77
     6
176
     1
 78
     2
176
     1
 67
     7
176
     1
 79
     5
176
     1
170
     0
176
     1
171
     0
176
     1
290
     0
176
     1
 93
       13
176
     1
 44
0.0
176
     1
173
     0
176
     1
  0
VISUALSTYLE
  5
38
102
{ACAD_REACTORS
330
2A
102
}
330
2A
100
AcDbVisualStyle
  2
Linepattern
 70
    14
177
     2
291
     1
 71
     2
176
     1
 72
     2
176
     1
 73
     0
176
     1
 90
        0
176
     1
 40
-0.6
176
     1
 41
-30.0
176
     1
 62
     5
 63
     7
421
 16777215
176
     1
 74
     1
176
     1
 91
        4
176
     1
 64
     7
176
     1
 65
   257
176
     1
 75
     7
176
     1
175
     7
176
     1
 42
1.0
176
     1
 92
        8
176
     1
 66
     7
176
     1
 43
1.0
176
     1
 76
     1
176
     1
 77
     6
176
     1
 78
     2
176
     1
 67
     7
176
     1
 79
     5
176
     1
170
     0
176
     1
171
     0
176
     1
290
     0
176
     1
 93
        1
176
     1
 44
0.0
176
     1
173
     0
176
     1
  0
VISUALSTYLE
  5
33
102
{ACAD_REACTORS
330
2A
102
}
330
2A
100
AcDbVisualStyle
  2
Realistic
 70
     8
177
     2
291
     0
 71
     2
176
     1
 72
     2
176
     1
 73
     0
176
     1
 90
        0
176
     1
 40
-0.6
176
     1
 41
-30.0
176
     1
 62
     5
 63
     7
421
 16777215
176
     1
 74
     1
176
     1
 91
        0
176
     1
 64
     7
176
     1
 65
   257
176
     1
 75
     1
176
     1
175
     1
176
     1
 42
1.0
176
     1
 92
        8
176
     1
 66
     8
424
  7895160
176
     1
 43
1.0
176
     1
 76
     1
176
     1
 77
     6
176
     1
 78
     2
176
     1
 67
     7
176
     1
 79
     5
176
     1
170
     0
176
     1
171
     0
176
     1
290
     0
176
     1
 93
       13
176
     1
 44
0.0
176
     1
173
     0
176
     1
  0
VISUALSTYLE
  5
37
102
{ACAD_REACTORS
330
2A
102
}
330
2A
100
AcDbVisualStyle
  2
Thicken
 70
    13
177
     2
291
     1
 71
     2
176
     1
 72
     2
176
     1
 73
     0
176
     1
 90
        0
176
     1
 40
-0.6
176
     1
 41
-30.0
176
     1
 62
     5
 63
     7
421
 16777215
176
     1
 74
     1
176
     1
 91
        4
176
     1
 64
     7
176
     1
 65
   257
176
     1
 75
     1
176
     1
175
     1
176
     1
 42
1.0
176
     1
 92
       12
176
     1
 66
     7
176
     1
 43
1.0
176
     1
 76
     1
176
     1
 77
     6
176
     1
 78
     2
176
     1
 67
     7
176
     1
 79
     5
176
     1
170
     0
176
     1
171
     0
176
     1
290
     0
176
     1
 93
        1
176
     1
 44
0.0
176
     1
173
     0
176
     1
  0
ENDSEC
  0
EOF
