G75*
%MOIN*%
%OFA0B0*%
%FSLAX25Y25*%
%IPPOS*%
%LPD*%
%AMOC8*
5,1,8,0,0,1.08239X$1,22.5*
%
%ADD10C,0.00000*%
D10*
X0001000Y0004937D02*
X0001000Y0193913D01*
X0001002Y0194037D01*
X0001008Y0194160D01*
X0001017Y0194284D01*
X0001031Y0194406D01*
X0001048Y0194529D01*
X0001070Y0194651D01*
X0001095Y0194772D01*
X0001124Y0194892D01*
X0001156Y0195011D01*
X0001193Y0195130D01*
X0001233Y0195247D01*
X0001276Y0195362D01*
X0001324Y0195477D01*
X0001375Y0195589D01*
X0001429Y0195700D01*
X0001487Y0195810D01*
X0001548Y0195917D01*
X0001613Y0196023D01*
X0001681Y0196126D01*
X0001752Y0196227D01*
X0001826Y0196326D01*
X0001903Y0196423D01*
X0001984Y0196517D01*
X0002067Y0196608D01*
X0002153Y0196697D01*
X0002242Y0196783D01*
X0002333Y0196866D01*
X0002427Y0196947D01*
X0002524Y0197024D01*
X0002623Y0197098D01*
X0002724Y0197169D01*
X0002827Y0197237D01*
X0002933Y0197302D01*
X0003040Y0197363D01*
X0003150Y0197421D01*
X0003261Y0197475D01*
X0003373Y0197526D01*
X0003488Y0197574D01*
X0003603Y0197617D01*
X0003720Y0197657D01*
X0003839Y0197694D01*
X0003958Y0197726D01*
X0004078Y0197755D01*
X0004199Y0197780D01*
X0004321Y0197802D01*
X0004444Y0197819D01*
X0004566Y0197833D01*
X0004690Y0197842D01*
X0004813Y0197848D01*
X0004937Y0197850D01*
X0193913Y0197850D01*
X0194037Y0197848D01*
X0194160Y0197842D01*
X0194284Y0197833D01*
X0194406Y0197819D01*
X0194529Y0197802D01*
X0194651Y0197780D01*
X0194772Y0197755D01*
X0194892Y0197726D01*
X0195011Y0197694D01*
X0195130Y0197657D01*
X0195247Y0197617D01*
X0195362Y0197574D01*
X0195477Y0197526D01*
X0195589Y0197475D01*
X0195700Y0197421D01*
X0195810Y0197363D01*
X0195917Y0197302D01*
X0196023Y0197237D01*
X0196126Y0197169D01*
X0196227Y0197098D01*
X0196326Y0197024D01*
X0196423Y0196947D01*
X0196517Y0196866D01*
X0196608Y0196783D01*
X0196697Y0196697D01*
X0196783Y0196608D01*
X0196866Y0196517D01*
X0196947Y0196423D01*
X0197024Y0196326D01*
X0197098Y0196227D01*
X0197169Y0196126D01*
X0197237Y0196023D01*
X0197302Y0195917D01*
X0197363Y0195810D01*
X0197421Y0195700D01*
X0197475Y0195589D01*
X0197526Y0195477D01*
X0197574Y0195362D01*
X0197617Y0195247D01*
X0197657Y0195130D01*
X0197694Y0195011D01*
X0197726Y0194892D01*
X0197755Y0194772D01*
X0197780Y0194651D01*
X0197802Y0194529D01*
X0197819Y0194406D01*
X0197833Y0194284D01*
X0197842Y0194160D01*
X0197848Y0194037D01*
X0197850Y0193913D01*
X0197850Y0004937D01*
X0197848Y0004813D01*
X0197842Y0004690D01*
X0197833Y0004566D01*
X0197819Y0004444D01*
X0197802Y0004321D01*
X0197780Y0004199D01*
X0197755Y0004078D01*
X0197726Y0003958D01*
X0197694Y0003839D01*
X0197657Y0003720D01*
X0197617Y0003603D01*
X0197574Y0003488D01*
X0197526Y0003373D01*
X0197475Y0003261D01*
X0197421Y0003150D01*
X0197363Y0003040D01*
X0197302Y0002933D01*
X0197237Y0002827D01*
X0197169Y0002724D01*
X0197098Y0002623D01*
X0197024Y0002524D01*
X0196947Y0002427D01*
X0196866Y0002333D01*
X0196783Y0002242D01*
X0196697Y0002153D01*
X0196608Y0002067D01*
X0196517Y0001984D01*
X0196423Y0001903D01*
X0196326Y0001826D01*
X0196227Y0001752D01*
X0196126Y0001681D01*
X0196023Y0001613D01*
X0195917Y0001548D01*
X0195810Y0001487D01*
X0195700Y0001429D01*
X0195589Y0001375D01*
X0195477Y0001324D01*
X0195362Y0001276D01*
X0195247Y0001233D01*
X0195130Y0001193D01*
X0195011Y0001156D01*
X0194892Y0001124D01*
X0194772Y0001095D01*
X0194651Y0001070D01*
X0194529Y0001048D01*
X0194406Y0001031D01*
X0194284Y0001017D01*
X0194160Y0001008D01*
X0194037Y0001002D01*
X0193913Y0001000D01*
X0004937Y0001000D01*
X0004813Y0001002D01*
X0004690Y0001008D01*
X0004566Y0001017D01*
X0004444Y0001031D01*
X0004321Y0001048D01*
X0004199Y0001070D01*
X0004078Y0001095D01*
X0003958Y0001124D01*
X0003839Y0001156D01*
X0003720Y0001193D01*
X0003603Y0001233D01*
X0003488Y0001276D01*
X0003373Y0001324D01*
X0003261Y0001375D01*
X0003150Y0001429D01*
X0003040Y0001487D01*
X0002933Y0001548D01*
X0002827Y0001613D01*
X0002724Y0001681D01*
X0002623Y0001752D01*
X0002524Y0001826D01*
X0002427Y0001903D01*
X0002333Y0001984D01*
X0002242Y0002067D01*
X0002153Y0002153D01*
X0002067Y0002242D01*
X0001984Y0002333D01*
X0001903Y0002427D01*
X0001826Y0002524D01*
X0001752Y0002623D01*
X0001681Y0002724D01*
X0001613Y0002827D01*
X0001548Y0002933D01*
X0001487Y0003040D01*
X0001429Y0003150D01*
X0001375Y0003261D01*
X0001324Y0003373D01*
X0001276Y0003488D01*
X0001233Y0003603D01*
X0001193Y0003720D01*
X0001156Y0003839D01*
X0001124Y0003958D01*
X0001095Y0004078D01*
X0001070Y0004199D01*
X0001048Y0004321D01*
X0001031Y0004444D01*
X0001017Y0004566D01*
X0001008Y0004690D01*
X0001002Y0004813D01*
X0001000Y0004937D01*
X0006866Y0007299D02*
X0006868Y0007340D01*
X0006874Y0007381D01*
X0006884Y0007421D01*
X0006897Y0007460D01*
X0006914Y0007497D01*
X0006935Y0007533D01*
X0006959Y0007567D01*
X0006986Y0007598D01*
X0007015Y0007626D01*
X0007048Y0007652D01*
X0007082Y0007674D01*
X0007119Y0007693D01*
X0007157Y0007708D01*
X0007197Y0007720D01*
X0007237Y0007728D01*
X0007278Y0007732D01*
X0007320Y0007732D01*
X0007361Y0007728D01*
X0007401Y0007720D01*
X0007441Y0007708D01*
X0007479Y0007693D01*
X0007515Y0007674D01*
X0007550Y0007652D01*
X0007583Y0007626D01*
X0007612Y0007598D01*
X0007639Y0007567D01*
X0007663Y0007533D01*
X0007684Y0007497D01*
X0007701Y0007460D01*
X0007714Y0007421D01*
X0007724Y0007381D01*
X0007730Y0007340D01*
X0007732Y0007299D01*
X0007730Y0007258D01*
X0007724Y0007217D01*
X0007714Y0007177D01*
X0007701Y0007138D01*
X0007684Y0007101D01*
X0007663Y0007065D01*
X0007639Y0007031D01*
X0007612Y0007000D01*
X0007583Y0006972D01*
X0007550Y0006946D01*
X0007516Y0006924D01*
X0007479Y0006905D01*
X0007441Y0006890D01*
X0007401Y0006878D01*
X0007361Y0006870D01*
X0007320Y0006866D01*
X0007278Y0006866D01*
X0007237Y0006870D01*
X0007197Y0006878D01*
X0007157Y0006890D01*
X0007119Y0006905D01*
X0007083Y0006924D01*
X0007048Y0006946D01*
X0007015Y0006972D01*
X0006986Y0007000D01*
X0006959Y0007031D01*
X0006935Y0007065D01*
X0006914Y0007101D01*
X0006897Y0007138D01*
X0006884Y0007177D01*
X0006874Y0007217D01*
X0006868Y0007258D01*
X0006866Y0007299D01*
X0006866Y0191551D02*
X0006868Y0191592D01*
X0006874Y0191633D01*
X0006884Y0191673D01*
X0006897Y0191712D01*
X0006914Y0191749D01*
X0006935Y0191785D01*
X0006959Y0191819D01*
X0006986Y0191850D01*
X0007015Y0191878D01*
X0007048Y0191904D01*
X0007082Y0191926D01*
X0007119Y0191945D01*
X0007157Y0191960D01*
X0007197Y0191972D01*
X0007237Y0191980D01*
X0007278Y0191984D01*
X0007320Y0191984D01*
X0007361Y0191980D01*
X0007401Y0191972D01*
X0007441Y0191960D01*
X0007479Y0191945D01*
X0007515Y0191926D01*
X0007550Y0191904D01*
X0007583Y0191878D01*
X0007612Y0191850D01*
X0007639Y0191819D01*
X0007663Y0191785D01*
X0007684Y0191749D01*
X0007701Y0191712D01*
X0007714Y0191673D01*
X0007724Y0191633D01*
X0007730Y0191592D01*
X0007732Y0191551D01*
X0007730Y0191510D01*
X0007724Y0191469D01*
X0007714Y0191429D01*
X0007701Y0191390D01*
X0007684Y0191353D01*
X0007663Y0191317D01*
X0007639Y0191283D01*
X0007612Y0191252D01*
X0007583Y0191224D01*
X0007550Y0191198D01*
X0007516Y0191176D01*
X0007479Y0191157D01*
X0007441Y0191142D01*
X0007401Y0191130D01*
X0007361Y0191122D01*
X0007320Y0191118D01*
X0007278Y0191118D01*
X0007237Y0191122D01*
X0007197Y0191130D01*
X0007157Y0191142D01*
X0007119Y0191157D01*
X0007083Y0191176D01*
X0007048Y0191198D01*
X0007015Y0191224D01*
X0006986Y0191252D01*
X0006959Y0191283D01*
X0006935Y0191317D01*
X0006914Y0191353D01*
X0006897Y0191390D01*
X0006884Y0191429D01*
X0006874Y0191469D01*
X0006868Y0191510D01*
X0006866Y0191551D01*
X0191118Y0191551D02*
X0191120Y0191592D01*
X0191126Y0191633D01*
X0191136Y0191673D01*
X0191149Y0191712D01*
X0191166Y0191749D01*
X0191187Y0191785D01*
X0191211Y0191819D01*
X0191238Y0191850D01*
X0191267Y0191878D01*
X0191300Y0191904D01*
X0191334Y0191926D01*
X0191371Y0191945D01*
X0191409Y0191960D01*
X0191449Y0191972D01*
X0191489Y0191980D01*
X0191530Y0191984D01*
X0191572Y0191984D01*
X0191613Y0191980D01*
X0191653Y0191972D01*
X0191693Y0191960D01*
X0191731Y0191945D01*
X0191767Y0191926D01*
X0191802Y0191904D01*
X0191835Y0191878D01*
X0191864Y0191850D01*
X0191891Y0191819D01*
X0191915Y0191785D01*
X0191936Y0191749D01*
X0191953Y0191712D01*
X0191966Y0191673D01*
X0191976Y0191633D01*
X0191982Y0191592D01*
X0191984Y0191551D01*
X0191982Y0191510D01*
X0191976Y0191469D01*
X0191966Y0191429D01*
X0191953Y0191390D01*
X0191936Y0191353D01*
X0191915Y0191317D01*
X0191891Y0191283D01*
X0191864Y0191252D01*
X0191835Y0191224D01*
X0191802Y0191198D01*
X0191768Y0191176D01*
X0191731Y0191157D01*
X0191693Y0191142D01*
X0191653Y0191130D01*
X0191613Y0191122D01*
X0191572Y0191118D01*
X0191530Y0191118D01*
X0191489Y0191122D01*
X0191449Y0191130D01*
X0191409Y0191142D01*
X0191371Y0191157D01*
X0191335Y0191176D01*
X0191300Y0191198D01*
X0191267Y0191224D01*
X0191238Y0191252D01*
X0191211Y0191283D01*
X0191187Y0191317D01*
X0191166Y0191353D01*
X0191149Y0191390D01*
X0191136Y0191429D01*
X0191126Y0191469D01*
X0191120Y0191510D01*
X0191118Y0191551D01*
X0191118Y0007299D02*
X0191120Y0007340D01*
X0191126Y0007381D01*
X0191136Y0007421D01*
X0191149Y0007460D01*
X0191166Y0007497D01*
X0191187Y0007533D01*
X0191211Y0007567D01*
X0191238Y0007598D01*
X0191267Y0007626D01*
X0191300Y0007652D01*
X0191334Y0007674D01*
X0191371Y0007693D01*
X0191409Y0007708D01*
X0191449Y0007720D01*
X0191489Y0007728D01*
X0191530Y0007732D01*
X0191572Y0007732D01*
X0191613Y0007728D01*
X0191653Y0007720D01*
X0191693Y0007708D01*
X0191731Y0007693D01*
X0191767Y0007674D01*
X0191802Y0007652D01*
X0191835Y0007626D01*
X0191864Y0007598D01*
X0191891Y0007567D01*
X0191915Y0007533D01*
X0191936Y0007497D01*
X0191953Y0007460D01*
X0191966Y0007421D01*
X0191976Y0007381D01*
X0191982Y0007340D01*
X0191984Y0007299D01*
X0191982Y0007258D01*
X0191976Y0007217D01*
X0191966Y0007177D01*
X0191953Y0007138D01*
X0191936Y0007101D01*
X0191915Y0007065D01*
X0191891Y0007031D01*
X0191864Y0007000D01*
X0191835Y0006972D01*
X0191802Y0006946D01*
X0191768Y0006924D01*
X0191731Y0006905D01*
X0191693Y0006890D01*
X0191653Y0006878D01*
X0191613Y0006870D01*
X0191572Y0006866D01*
X0191530Y0006866D01*
X0191489Y0006870D01*
X0191449Y0006878D01*
X0191409Y0006890D01*
X0191371Y0006905D01*
X0191335Y0006924D01*
X0191300Y0006946D01*
X0191267Y0006972D01*
X0191238Y0007000D01*
X0191211Y0007031D01*
X0191187Y0007065D01*
X0191166Y0007101D01*
X0191149Y0007138D01*
X0191136Y0007177D01*
X0191126Y0007217D01*
X0191120Y0007258D01*
X0191118Y0007299D01*
M02*
