%
M48
M72
T01C0.0087
T02C0.0197
%
T01
X730Y730
X730Y19155
X19155Y19155
X19155Y730
T02
X17576Y2281
X16458Y3372
X15549Y4356
X14509Y5348
X13167Y6718
X12076Y7754
X7813Y7844
X6702Y6702
X5403Y5423
X4364Y4383
X3293Y3336
X2269Y2293
X7974Y11852
X6639Y13376
X5383Y14506
X4297Y15624
X3277Y16608
X2289Y17647
X12053Y11954
X13088Y13100
X14521Y14506
X15635Y15596
X16565Y16580
X17655Y17565
M30
