G75*
%MOIN*%
%OFA0B0*%
%FSLAX25Y25*%
%IPPOS*%
%LPD*%
%AMOC8*
5,1,8,0,0,1.08239X$1,22.5*
%
%ADD10C,0.00500*%
D10*
X0032496Y0056118D02*
X0032503Y0056698D01*
X0032524Y0057277D01*
X0032560Y0057856D01*
X0032610Y0058433D01*
X0032674Y0059010D01*
X0032752Y0059584D01*
X0032844Y0060156D01*
X0032950Y0060726D01*
X0033070Y0061294D01*
X0033204Y0061858D01*
X0033352Y0062418D01*
X0033513Y0062975D01*
X0033688Y0063528D01*
X0033877Y0064076D01*
X0034079Y0064619D01*
X0034294Y0065158D01*
X0034523Y0065691D01*
X0034764Y0066218D01*
X0035018Y0066739D01*
X0035285Y0067253D01*
X0035565Y0067761D01*
X0035857Y0068262D01*
X0036161Y0068756D01*
X0036477Y0069242D01*
X0036805Y0069720D01*
X0037145Y0070190D01*
X0037496Y0070651D01*
X0037858Y0071104D01*
X0038231Y0071547D01*
X0038615Y0071982D01*
X0039010Y0072406D01*
X0039415Y0072821D01*
X0039830Y0073226D01*
X0040254Y0073621D01*
X0040689Y0074005D01*
X0041132Y0074378D01*
X0041585Y0074740D01*
X0042046Y0075091D01*
X0042516Y0075431D01*
X0042994Y0075759D01*
X0043480Y0076075D01*
X0043974Y0076379D01*
X0044475Y0076671D01*
X0044983Y0076951D01*
X0045497Y0077218D01*
X0046018Y0077472D01*
X0046545Y0077713D01*
X0047078Y0077942D01*
X0047617Y0078157D01*
X0048160Y0078359D01*
X0048708Y0078548D01*
X0049261Y0078723D01*
X0049818Y0078884D01*
X0050378Y0079032D01*
X0050942Y0079166D01*
X0051510Y0079286D01*
X0052080Y0079392D01*
X0052652Y0079484D01*
X0053226Y0079562D01*
X0053803Y0079626D01*
X0054380Y0079676D01*
X0054959Y0079712D01*
X0055538Y0079733D01*
X0056118Y0079740D01*
X0056698Y0079733D01*
X0057277Y0079712D01*
X0057856Y0079676D01*
X0058433Y0079626D01*
X0059010Y0079562D01*
X0059584Y0079484D01*
X0060156Y0079392D01*
X0060726Y0079286D01*
X0061294Y0079166D01*
X0061858Y0079032D01*
X0062418Y0078884D01*
X0062975Y0078723D01*
X0063528Y0078548D01*
X0064076Y0078359D01*
X0064619Y0078157D01*
X0065158Y0077942D01*
X0065691Y0077713D01*
X0066218Y0077472D01*
X0066739Y0077218D01*
X0067253Y0076951D01*
X0067761Y0076671D01*
X0068262Y0076379D01*
X0068756Y0076075D01*
X0069242Y0075759D01*
X0069720Y0075431D01*
X0070190Y0075091D01*
X0070651Y0074740D01*
X0071104Y0074378D01*
X0071547Y0074005D01*
X0071982Y0073621D01*
X0072406Y0073226D01*
X0072821Y0072821D01*
X0073226Y0072406D01*
X0073621Y0071982D01*
X0074005Y0071547D01*
X0074378Y0071104D01*
X0074740Y0070651D01*
X0075091Y0070190D01*
X0075431Y0069720D01*
X0075759Y0069242D01*
X0076075Y0068756D01*
X0076379Y0068262D01*
X0076671Y0067761D01*
X0076951Y0067253D01*
X0077218Y0066739D01*
X0077472Y0066218D01*
X0077713Y0065691D01*
X0077942Y0065158D01*
X0078157Y0064619D01*
X0078359Y0064076D01*
X0078548Y0063528D01*
X0078723Y0062975D01*
X0078884Y0062418D01*
X0079032Y0061858D01*
X0079166Y0061294D01*
X0079286Y0060726D01*
X0079392Y0060156D01*
X0079484Y0059584D01*
X0079562Y0059010D01*
X0079626Y0058433D01*
X0079676Y0057856D01*
X0079712Y0057277D01*
X0079733Y0056698D01*
X0079740Y0056118D01*
X0079733Y0055538D01*
X0079712Y0054959D01*
X0079676Y0054380D01*
X0079626Y0053803D01*
X0079562Y0053226D01*
X0079484Y0052652D01*
X0079392Y0052080D01*
X0079286Y0051510D01*
X0079166Y0050942D01*
X0079032Y0050378D01*
X0078884Y0049818D01*
X0078723Y0049261D01*
X0078548Y0048708D01*
X0078359Y0048160D01*
X0078157Y0047617D01*
X0077942Y0047078D01*
X0077713Y0046545D01*
X0077472Y0046018D01*
X0077218Y0045497D01*
X0076951Y0044983D01*
X0076671Y0044475D01*
X0076379Y0043974D01*
X0076075Y0043480D01*
X0075759Y0042994D01*
X0075431Y0042516D01*
X0075091Y0042046D01*
X0074740Y0041585D01*
X0074378Y0041132D01*
X0074005Y0040689D01*
X0073621Y0040254D01*
X0073226Y0039830D01*
X0072821Y0039415D01*
X0072406Y0039010D01*
X0071982Y0038615D01*
X0071547Y0038231D01*
X0071104Y0037858D01*
X0070651Y0037496D01*
X0070190Y0037145D01*
X0069720Y0036805D01*
X0069242Y0036477D01*
X0068756Y0036161D01*
X0068262Y0035857D01*
X0067761Y0035565D01*
X0067253Y0035285D01*
X0066739Y0035018D01*
X0066218Y0034764D01*
X0065691Y0034523D01*
X0065158Y0034294D01*
X0064619Y0034079D01*
X0064076Y0033877D01*
X0063528Y0033688D01*
X0062975Y0033513D01*
X0062418Y0033352D01*
X0061858Y0033204D01*
X0061294Y0033070D01*
X0060726Y0032950D01*
X0060156Y0032844D01*
X0059584Y0032752D01*
X0059010Y0032674D01*
X0058433Y0032610D01*
X0057856Y0032560D01*
X0057277Y0032524D01*
X0056698Y0032503D01*
X0056118Y0032496D01*
X0055538Y0032503D01*
X0054959Y0032524D01*
X0054380Y0032560D01*
X0053803Y0032610D01*
X0053226Y0032674D01*
X0052652Y0032752D01*
X0052080Y0032844D01*
X0051510Y0032950D01*
X0050942Y0033070D01*
X0050378Y0033204D01*
X0049818Y0033352D01*
X0049261Y0033513D01*
X0048708Y0033688D01*
X0048160Y0033877D01*
X0047617Y0034079D01*
X0047078Y0034294D01*
X0046545Y0034523D01*
X0046018Y0034764D01*
X0045497Y0035018D01*
X0044983Y0035285D01*
X0044475Y0035565D01*
X0043974Y0035857D01*
X0043480Y0036161D01*
X0042994Y0036477D01*
X0042516Y0036805D01*
X0042046Y0037145D01*
X0041585Y0037496D01*
X0041132Y0037858D01*
X0040689Y0038231D01*
X0040254Y0038615D01*
X0039830Y0039010D01*
X0039415Y0039415D01*
X0039010Y0039830D01*
X0038615Y0040254D01*
X0038231Y0040689D01*
X0037858Y0041132D01*
X0037496Y0041585D01*
X0037145Y0042046D01*
X0036805Y0042516D01*
X0036477Y0042994D01*
X0036161Y0043480D01*
X0035857Y0043974D01*
X0035565Y0044475D01*
X0035285Y0044983D01*
X0035018Y0045497D01*
X0034764Y0046018D01*
X0034523Y0046545D01*
X0034294Y0047078D01*
X0034079Y0047617D01*
X0033877Y0048160D01*
X0033688Y0048708D01*
X0033513Y0049261D01*
X0033352Y0049818D01*
X0033204Y0050378D01*
X0033070Y0050942D01*
X0032950Y0051510D01*
X0032844Y0052080D01*
X0032752Y0052652D01*
X0032674Y0053226D01*
X0032610Y0053803D01*
X0032560Y0054380D01*
X0032524Y0054959D01*
X0032503Y0055538D01*
X0032496Y0056118D01*
X0032496Y0142732D02*
X0032503Y0143312D01*
X0032524Y0143891D01*
X0032560Y0144470D01*
X0032610Y0145047D01*
X0032674Y0145624D01*
X0032752Y0146198D01*
X0032844Y0146770D01*
X0032950Y0147340D01*
X0033070Y0147908D01*
X0033204Y0148472D01*
X0033352Y0149032D01*
X0033513Y0149589D01*
X0033688Y0150142D01*
X0033877Y0150690D01*
X0034079Y0151233D01*
X0034294Y0151772D01*
X0034523Y0152305D01*
X0034764Y0152832D01*
X0035018Y0153353D01*
X0035285Y0153867D01*
X0035565Y0154375D01*
X0035857Y0154876D01*
X0036161Y0155370D01*
X0036477Y0155856D01*
X0036805Y0156334D01*
X0037145Y0156804D01*
X0037496Y0157265D01*
X0037858Y0157718D01*
X0038231Y0158161D01*
X0038615Y0158596D01*
X0039010Y0159020D01*
X0039415Y0159435D01*
X0039830Y0159840D01*
X0040254Y0160235D01*
X0040689Y0160619D01*
X0041132Y0160992D01*
X0041585Y0161354D01*
X0042046Y0161705D01*
X0042516Y0162045D01*
X0042994Y0162373D01*
X0043480Y0162689D01*
X0043974Y0162993D01*
X0044475Y0163285D01*
X0044983Y0163565D01*
X0045497Y0163832D01*
X0046018Y0164086D01*
X0046545Y0164327D01*
X0047078Y0164556D01*
X0047617Y0164771D01*
X0048160Y0164973D01*
X0048708Y0165162D01*
X0049261Y0165337D01*
X0049818Y0165498D01*
X0050378Y0165646D01*
X0050942Y0165780D01*
X0051510Y0165900D01*
X0052080Y0166006D01*
X0052652Y0166098D01*
X0053226Y0166176D01*
X0053803Y0166240D01*
X0054380Y0166290D01*
X0054959Y0166326D01*
X0055538Y0166347D01*
X0056118Y0166354D01*
X0056698Y0166347D01*
X0057277Y0166326D01*
X0057856Y0166290D01*
X0058433Y0166240D01*
X0059010Y0166176D01*
X0059584Y0166098D01*
X0060156Y0166006D01*
X0060726Y0165900D01*
X0061294Y0165780D01*
X0061858Y0165646D01*
X0062418Y0165498D01*
X0062975Y0165337D01*
X0063528Y0165162D01*
X0064076Y0164973D01*
X0064619Y0164771D01*
X0065158Y0164556D01*
X0065691Y0164327D01*
X0066218Y0164086D01*
X0066739Y0163832D01*
X0067253Y0163565D01*
X0067761Y0163285D01*
X0068262Y0162993D01*
X0068756Y0162689D01*
X0069242Y0162373D01*
X0069720Y0162045D01*
X0070190Y0161705D01*
X0070651Y0161354D01*
X0071104Y0160992D01*
X0071547Y0160619D01*
X0071982Y0160235D01*
X0072406Y0159840D01*
X0072821Y0159435D01*
X0073226Y0159020D01*
X0073621Y0158596D01*
X0074005Y0158161D01*
X0074378Y0157718D01*
X0074740Y0157265D01*
X0075091Y0156804D01*
X0075431Y0156334D01*
X0075759Y0155856D01*
X0076075Y0155370D01*
X0076379Y0154876D01*
X0076671Y0154375D01*
X0076951Y0153867D01*
X0077218Y0153353D01*
X0077472Y0152832D01*
X0077713Y0152305D01*
X0077942Y0151772D01*
X0078157Y0151233D01*
X0078359Y0150690D01*
X0078548Y0150142D01*
X0078723Y0149589D01*
X0078884Y0149032D01*
X0079032Y0148472D01*
X0079166Y0147908D01*
X0079286Y0147340D01*
X0079392Y0146770D01*
X0079484Y0146198D01*
X0079562Y0145624D01*
X0079626Y0145047D01*
X0079676Y0144470D01*
X0079712Y0143891D01*
X0079733Y0143312D01*
X0079740Y0142732D01*
X0079733Y0142152D01*
X0079712Y0141573D01*
X0079676Y0140994D01*
X0079626Y0140417D01*
X0079562Y0139840D01*
X0079484Y0139266D01*
X0079392Y0138694D01*
X0079286Y0138124D01*
X0079166Y0137556D01*
X0079032Y0136992D01*
X0078884Y0136432D01*
X0078723Y0135875D01*
X0078548Y0135322D01*
X0078359Y0134774D01*
X0078157Y0134231D01*
X0077942Y0133692D01*
X0077713Y0133159D01*
X0077472Y0132632D01*
X0077218Y0132111D01*
X0076951Y0131597D01*
X0076671Y0131089D01*
X0076379Y0130588D01*
X0076075Y0130094D01*
X0075759Y0129608D01*
X0075431Y0129130D01*
X0075091Y0128660D01*
X0074740Y0128199D01*
X0074378Y0127746D01*
X0074005Y0127303D01*
X0073621Y0126868D01*
X0073226Y0126444D01*
X0072821Y0126029D01*
X0072406Y0125624D01*
X0071982Y0125229D01*
X0071547Y0124845D01*
X0071104Y0124472D01*
X0070651Y0124110D01*
X0070190Y0123759D01*
X0069720Y0123419D01*
X0069242Y0123091D01*
X0068756Y0122775D01*
X0068262Y0122471D01*
X0067761Y0122179D01*
X0067253Y0121899D01*
X0066739Y0121632D01*
X0066218Y0121378D01*
X0065691Y0121137D01*
X0065158Y0120908D01*
X0064619Y0120693D01*
X0064076Y0120491D01*
X0063528Y0120302D01*
X0062975Y0120127D01*
X0062418Y0119966D01*
X0061858Y0119818D01*
X0061294Y0119684D01*
X0060726Y0119564D01*
X0060156Y0119458D01*
X0059584Y0119366D01*
X0059010Y0119288D01*
X0058433Y0119224D01*
X0057856Y0119174D01*
X0057277Y0119138D01*
X0056698Y0119117D01*
X0056118Y0119110D01*
X0055538Y0119117D01*
X0054959Y0119138D01*
X0054380Y0119174D01*
X0053803Y0119224D01*
X0053226Y0119288D01*
X0052652Y0119366D01*
X0052080Y0119458D01*
X0051510Y0119564D01*
X0050942Y0119684D01*
X0050378Y0119818D01*
X0049818Y0119966D01*
X0049261Y0120127D01*
X0048708Y0120302D01*
X0048160Y0120491D01*
X0047617Y0120693D01*
X0047078Y0120908D01*
X0046545Y0121137D01*
X0046018Y0121378D01*
X0045497Y0121632D01*
X0044983Y0121899D01*
X0044475Y0122179D01*
X0043974Y0122471D01*
X0043480Y0122775D01*
X0042994Y0123091D01*
X0042516Y0123419D01*
X0042046Y0123759D01*
X0041585Y0124110D01*
X0041132Y0124472D01*
X0040689Y0124845D01*
X0040254Y0125229D01*
X0039830Y0125624D01*
X0039415Y0126029D01*
X0039010Y0126444D01*
X0038615Y0126868D01*
X0038231Y0127303D01*
X0037858Y0127746D01*
X0037496Y0128199D01*
X0037145Y0128660D01*
X0036805Y0129130D01*
X0036477Y0129608D01*
X0036161Y0130094D01*
X0035857Y0130588D01*
X0035565Y0131089D01*
X0035285Y0131597D01*
X0035018Y0132111D01*
X0034764Y0132632D01*
X0034523Y0133159D01*
X0034294Y0133692D01*
X0034079Y0134231D01*
X0033877Y0134774D01*
X0033688Y0135322D01*
X0033513Y0135875D01*
X0033352Y0136432D01*
X0033204Y0136992D01*
X0033070Y0137556D01*
X0032950Y0138124D01*
X0032844Y0138694D01*
X0032752Y0139266D01*
X0032674Y0139840D01*
X0032610Y0140417D01*
X0032560Y0140994D01*
X0032524Y0141573D01*
X0032503Y0142152D01*
X0032496Y0142732D01*
X0119110Y0142732D02*
X0119117Y0143312D01*
X0119138Y0143891D01*
X0119174Y0144470D01*
X0119224Y0145047D01*
X0119288Y0145624D01*
X0119366Y0146198D01*
X0119458Y0146770D01*
X0119564Y0147340D01*
X0119684Y0147908D01*
X0119818Y0148472D01*
X0119966Y0149032D01*
X0120127Y0149589D01*
X0120302Y0150142D01*
X0120491Y0150690D01*
X0120693Y0151233D01*
X0120908Y0151772D01*
X0121137Y0152305D01*
X0121378Y0152832D01*
X0121632Y0153353D01*
X0121899Y0153867D01*
X0122179Y0154375D01*
X0122471Y0154876D01*
X0122775Y0155370D01*
X0123091Y0155856D01*
X0123419Y0156334D01*
X0123759Y0156804D01*
X0124110Y0157265D01*
X0124472Y0157718D01*
X0124845Y0158161D01*
X0125229Y0158596D01*
X0125624Y0159020D01*
X0126029Y0159435D01*
X0126444Y0159840D01*
X0126868Y0160235D01*
X0127303Y0160619D01*
X0127746Y0160992D01*
X0128199Y0161354D01*
X0128660Y0161705D01*
X0129130Y0162045D01*
X0129608Y0162373D01*
X0130094Y0162689D01*
X0130588Y0162993D01*
X0131089Y0163285D01*
X0131597Y0163565D01*
X0132111Y0163832D01*
X0132632Y0164086D01*
X0133159Y0164327D01*
X0133692Y0164556D01*
X0134231Y0164771D01*
X0134774Y0164973D01*
X0135322Y0165162D01*
X0135875Y0165337D01*
X0136432Y0165498D01*
X0136992Y0165646D01*
X0137556Y0165780D01*
X0138124Y0165900D01*
X0138694Y0166006D01*
X0139266Y0166098D01*
X0139840Y0166176D01*
X0140417Y0166240D01*
X0140994Y0166290D01*
X0141573Y0166326D01*
X0142152Y0166347D01*
X0142732Y0166354D01*
X0143312Y0166347D01*
X0143891Y0166326D01*
X0144470Y0166290D01*
X0145047Y0166240D01*
X0145624Y0166176D01*
X0146198Y0166098D01*
X0146770Y0166006D01*
X0147340Y0165900D01*
X0147908Y0165780D01*
X0148472Y0165646D01*
X0149032Y0165498D01*
X0149589Y0165337D01*
X0150142Y0165162D01*
X0150690Y0164973D01*
X0151233Y0164771D01*
X0151772Y0164556D01*
X0152305Y0164327D01*
X0152832Y0164086D01*
X0153353Y0163832D01*
X0153867Y0163565D01*
X0154375Y0163285D01*
X0154876Y0162993D01*
X0155370Y0162689D01*
X0155856Y0162373D01*
X0156334Y0162045D01*
X0156804Y0161705D01*
X0157265Y0161354D01*
X0157718Y0160992D01*
X0158161Y0160619D01*
X0158596Y0160235D01*
X0159020Y0159840D01*
X0159435Y0159435D01*
X0159840Y0159020D01*
X0160235Y0158596D01*
X0160619Y0158161D01*
X0160992Y0157718D01*
X0161354Y0157265D01*
X0161705Y0156804D01*
X0162045Y0156334D01*
X0162373Y0155856D01*
X0162689Y0155370D01*
X0162993Y0154876D01*
X0163285Y0154375D01*
X0163565Y0153867D01*
X0163832Y0153353D01*
X0164086Y0152832D01*
X0164327Y0152305D01*
X0164556Y0151772D01*
X0164771Y0151233D01*
X0164973Y0150690D01*
X0165162Y0150142D01*
X0165337Y0149589D01*
X0165498Y0149032D01*
X0165646Y0148472D01*
X0165780Y0147908D01*
X0165900Y0147340D01*
X0166006Y0146770D01*
X0166098Y0146198D01*
X0166176Y0145624D01*
X0166240Y0145047D01*
X0166290Y0144470D01*
X0166326Y0143891D01*
X0166347Y0143312D01*
X0166354Y0142732D01*
X0166347Y0142152D01*
X0166326Y0141573D01*
X0166290Y0140994D01*
X0166240Y0140417D01*
X0166176Y0139840D01*
X0166098Y0139266D01*
X0166006Y0138694D01*
X0165900Y0138124D01*
X0165780Y0137556D01*
X0165646Y0136992D01*
X0165498Y0136432D01*
X0165337Y0135875D01*
X0165162Y0135322D01*
X0164973Y0134774D01*
X0164771Y0134231D01*
X0164556Y0133692D01*
X0164327Y0133159D01*
X0164086Y0132632D01*
X0163832Y0132111D01*
X0163565Y0131597D01*
X0163285Y0131089D01*
X0162993Y0130588D01*
X0162689Y0130094D01*
X0162373Y0129608D01*
X0162045Y0129130D01*
X0161705Y0128660D01*
X0161354Y0128199D01*
X0160992Y0127746D01*
X0160619Y0127303D01*
X0160235Y0126868D01*
X0159840Y0126444D01*
X0159435Y0126029D01*
X0159020Y0125624D01*
X0158596Y0125229D01*
X0158161Y0124845D01*
X0157718Y0124472D01*
X0157265Y0124110D01*
X0156804Y0123759D01*
X0156334Y0123419D01*
X0155856Y0123091D01*
X0155370Y0122775D01*
X0154876Y0122471D01*
X0154375Y0122179D01*
X0153867Y0121899D01*
X0153353Y0121632D01*
X0152832Y0121378D01*
X0152305Y0121137D01*
X0151772Y0120908D01*
X0151233Y0120693D01*
X0150690Y0120491D01*
X0150142Y0120302D01*
X0149589Y0120127D01*
X0149032Y0119966D01*
X0148472Y0119818D01*
X0147908Y0119684D01*
X0147340Y0119564D01*
X0146770Y0119458D01*
X0146198Y0119366D01*
X0145624Y0119288D01*
X0145047Y0119224D01*
X0144470Y0119174D01*
X0143891Y0119138D01*
X0143312Y0119117D01*
X0142732Y0119110D01*
X0142152Y0119117D01*
X0141573Y0119138D01*
X0140994Y0119174D01*
X0140417Y0119224D01*
X0139840Y0119288D01*
X0139266Y0119366D01*
X0138694Y0119458D01*
X0138124Y0119564D01*
X0137556Y0119684D01*
X0136992Y0119818D01*
X0136432Y0119966D01*
X0135875Y0120127D01*
X0135322Y0120302D01*
X0134774Y0120491D01*
X0134231Y0120693D01*
X0133692Y0120908D01*
X0133159Y0121137D01*
X0132632Y0121378D01*
X0132111Y0121632D01*
X0131597Y0121899D01*
X0131089Y0122179D01*
X0130588Y0122471D01*
X0130094Y0122775D01*
X0129608Y0123091D01*
X0129130Y0123419D01*
X0128660Y0123759D01*
X0128199Y0124110D01*
X0127746Y0124472D01*
X0127303Y0124845D01*
X0126868Y0125229D01*
X0126444Y0125624D01*
X0126029Y0126029D01*
X0125624Y0126444D01*
X0125229Y0126868D01*
X0124845Y0127303D01*
X0124472Y0127746D01*
X0124110Y0128199D01*
X0123759Y0128660D01*
X0123419Y0129130D01*
X0123091Y0129608D01*
X0122775Y0130094D01*
X0122471Y0130588D01*
X0122179Y0131089D01*
X0121899Y0131597D01*
X0121632Y0132111D01*
X0121378Y0132632D01*
X0121137Y0133159D01*
X0120908Y0133692D01*
X0120693Y0134231D01*
X0120491Y0134774D01*
X0120302Y0135322D01*
X0120127Y0135875D01*
X0119966Y0136432D01*
X0119818Y0136992D01*
X0119684Y0137556D01*
X0119564Y0138124D01*
X0119458Y0138694D01*
X0119366Y0139266D01*
X0119288Y0139840D01*
X0119224Y0140417D01*
X0119174Y0140994D01*
X0119138Y0141573D01*
X0119117Y0142152D01*
X0119110Y0142732D01*
X0119110Y0056118D02*
X0119117Y0056698D01*
X0119138Y0057277D01*
X0119174Y0057856D01*
X0119224Y0058433D01*
X0119288Y0059010D01*
X0119366Y0059584D01*
X0119458Y0060156D01*
X0119564Y0060726D01*
X0119684Y0061294D01*
X0119818Y0061858D01*
X0119966Y0062418D01*
X0120127Y0062975D01*
X0120302Y0063528D01*
X0120491Y0064076D01*
X0120693Y0064619D01*
X0120908Y0065158D01*
X0121137Y0065691D01*
X0121378Y0066218D01*
X0121632Y0066739D01*
X0121899Y0067253D01*
X0122179Y0067761D01*
X0122471Y0068262D01*
X0122775Y0068756D01*
X0123091Y0069242D01*
X0123419Y0069720D01*
X0123759Y0070190D01*
X0124110Y0070651D01*
X0124472Y0071104D01*
X0124845Y0071547D01*
X0125229Y0071982D01*
X0125624Y0072406D01*
X0126029Y0072821D01*
X0126444Y0073226D01*
X0126868Y0073621D01*
X0127303Y0074005D01*
X0127746Y0074378D01*
X0128199Y0074740D01*
X0128660Y0075091D01*
X0129130Y0075431D01*
X0129608Y0075759D01*
X0130094Y0076075D01*
X0130588Y0076379D01*
X0131089Y0076671D01*
X0131597Y0076951D01*
X0132111Y0077218D01*
X0132632Y0077472D01*
X0133159Y0077713D01*
X0133692Y0077942D01*
X0134231Y0078157D01*
X0134774Y0078359D01*
X0135322Y0078548D01*
X0135875Y0078723D01*
X0136432Y0078884D01*
X0136992Y0079032D01*
X0137556Y0079166D01*
X0138124Y0079286D01*
X0138694Y0079392D01*
X0139266Y0079484D01*
X0139840Y0079562D01*
X0140417Y0079626D01*
X0140994Y0079676D01*
X0141573Y0079712D01*
X0142152Y0079733D01*
X0142732Y0079740D01*
X0143312Y0079733D01*
X0143891Y0079712D01*
X0144470Y0079676D01*
X0145047Y0079626D01*
X0145624Y0079562D01*
X0146198Y0079484D01*
X0146770Y0079392D01*
X0147340Y0079286D01*
X0147908Y0079166D01*
X0148472Y0079032D01*
X0149032Y0078884D01*
X0149589Y0078723D01*
X0150142Y0078548D01*
X0150690Y0078359D01*
X0151233Y0078157D01*
X0151772Y0077942D01*
X0152305Y0077713D01*
X0152832Y0077472D01*
X0153353Y0077218D01*
X0153867Y0076951D01*
X0154375Y0076671D01*
X0154876Y0076379D01*
X0155370Y0076075D01*
X0155856Y0075759D01*
X0156334Y0075431D01*
X0156804Y0075091D01*
X0157265Y0074740D01*
X0157718Y0074378D01*
X0158161Y0074005D01*
X0158596Y0073621D01*
X0159020Y0073226D01*
X0159435Y0072821D01*
X0159840Y0072406D01*
X0160235Y0071982D01*
X0160619Y0071547D01*
X0160992Y0071104D01*
X0161354Y0070651D01*
X0161705Y0070190D01*
X0162045Y0069720D01*
X0162373Y0069242D01*
X0162689Y0068756D01*
X0162993Y0068262D01*
X0163285Y0067761D01*
X0163565Y0067253D01*
X0163832Y0066739D01*
X0164086Y0066218D01*
X0164327Y0065691D01*
X0164556Y0065158D01*
X0164771Y0064619D01*
X0164973Y0064076D01*
X0165162Y0063528D01*
X0165337Y0062975D01*
X0165498Y0062418D01*
X0165646Y0061858D01*
X0165780Y0061294D01*
X0165900Y0060726D01*
X0166006Y0060156D01*
X0166098Y0059584D01*
X0166176Y0059010D01*
X0166240Y0058433D01*
X0166290Y0057856D01*
X0166326Y0057277D01*
X0166347Y0056698D01*
X0166354Y0056118D01*
X0166347Y0055538D01*
X0166326Y0054959D01*
X0166290Y0054380D01*
X0166240Y0053803D01*
X0166176Y0053226D01*
X0166098Y0052652D01*
X0166006Y0052080D01*
X0165900Y0051510D01*
X0165780Y0050942D01*
X0165646Y0050378D01*
X0165498Y0049818D01*
X0165337Y0049261D01*
X0165162Y0048708D01*
X0164973Y0048160D01*
X0164771Y0047617D01*
X0164556Y0047078D01*
X0164327Y0046545D01*
X0164086Y0046018D01*
X0163832Y0045497D01*
X0163565Y0044983D01*
X0163285Y0044475D01*
X0162993Y0043974D01*
X0162689Y0043480D01*
X0162373Y0042994D01*
X0162045Y0042516D01*
X0161705Y0042046D01*
X0161354Y0041585D01*
X0160992Y0041132D01*
X0160619Y0040689D01*
X0160235Y0040254D01*
X0159840Y0039830D01*
X0159435Y0039415D01*
X0159020Y0039010D01*
X0158596Y0038615D01*
X0158161Y0038231D01*
X0157718Y0037858D01*
X0157265Y0037496D01*
X0156804Y0037145D01*
X0156334Y0036805D01*
X0155856Y0036477D01*
X0155370Y0036161D01*
X0154876Y0035857D01*
X0154375Y0035565D01*
X0153867Y0035285D01*
X0153353Y0035018D01*
X0152832Y0034764D01*
X0152305Y0034523D01*
X0151772Y0034294D01*
X0151233Y0034079D01*
X0150690Y0033877D01*
X0150142Y0033688D01*
X0149589Y0033513D01*
X0149032Y0033352D01*
X0148472Y0033204D01*
X0147908Y0033070D01*
X0147340Y0032950D01*
X0146770Y0032844D01*
X0146198Y0032752D01*
X0145624Y0032674D01*
X0145047Y0032610D01*
X0144470Y0032560D01*
X0143891Y0032524D01*
X0143312Y0032503D01*
X0142732Y0032496D01*
X0142152Y0032503D01*
X0141573Y0032524D01*
X0140994Y0032560D01*
X0140417Y0032610D01*
X0139840Y0032674D01*
X0139266Y0032752D01*
X0138694Y0032844D01*
X0138124Y0032950D01*
X0137556Y0033070D01*
X0136992Y0033204D01*
X0136432Y0033352D01*
X0135875Y0033513D01*
X0135322Y0033688D01*
X0134774Y0033877D01*
X0134231Y0034079D01*
X0133692Y0034294D01*
X0133159Y0034523D01*
X0132632Y0034764D01*
X0132111Y0035018D01*
X0131597Y0035285D01*
X0131089Y0035565D01*
X0130588Y0035857D01*
X0130094Y0036161D01*
X0129608Y0036477D01*
X0129130Y0036805D01*
X0128660Y0037145D01*
X0128199Y0037496D01*
X0127746Y0037858D01*
X0127303Y0038231D01*
X0126868Y0038615D01*
X0126444Y0039010D01*
X0126029Y0039415D01*
X0125624Y0039830D01*
X0125229Y0040254D01*
X0124845Y0040689D01*
X0124472Y0041132D01*
X0124110Y0041585D01*
X0123759Y0042046D01*
X0123419Y0042516D01*
X0123091Y0042994D01*
X0122775Y0043480D01*
X0122471Y0043974D01*
X0122179Y0044475D01*
X0121899Y0044983D01*
X0121632Y0045497D01*
X0121378Y0046018D01*
X0121137Y0046545D01*
X0120908Y0047078D01*
X0120693Y0047617D01*
X0120491Y0048160D01*
X0120302Y0048708D01*
X0120127Y0049261D01*
X0119966Y0049818D01*
X0119818Y0050378D01*
X0119684Y0050942D01*
X0119564Y0051510D01*
X0119458Y0052080D01*
X0119366Y0052652D01*
X0119288Y0053226D01*
X0119224Y0053803D01*
X0119174Y0054380D01*
X0119138Y0054959D01*
X0119117Y0055538D01*
X0119110Y0056118D01*
M02*
