G75*
%MOIN*%
%OFA0B0*%
%FSLAX25Y25*%
%IPPOS*%
%LPD*%
%AMOC8*
5,1,8,0,0,1.08239X$1,22.5*
%
%ADD10R,0.09843X0.09843*%
%ADD11R,0.05000X0.10000*%
%ADD12R,0.10000X0.05000*%
%ADD13C,0.02400*%
%ADD14C,0.01600*%
%ADD15C,0.03569*%
D10*
X0044307Y0099425D03*
X0056118Y0099425D03*
X0067929Y0099425D03*
X0079740Y0099425D03*
X0099425Y0079740D03*
X0099425Y0067929D03*
X0099425Y0056118D03*
X0099425Y0044307D03*
X0119110Y0099425D03*
X0130921Y0099425D03*
X0142732Y0099425D03*
X0154543Y0099425D03*
X0099425Y0119110D03*
X0099425Y0130921D03*
X0099425Y0142732D03*
X0099425Y0154543D03*
D11*
X0147417Y0187850D03*
X0157417Y0187850D03*
X0167417Y0187850D03*
X0177417Y0187850D03*
X0051433Y0187850D03*
X0041433Y0187850D03*
X0031433Y0187850D03*
X0021433Y0187850D03*
X0021433Y0011000D03*
X0031433Y0011000D03*
X0041433Y0011000D03*
X0051433Y0011000D03*
X0147417Y0011000D03*
X0157417Y0011000D03*
X0167417Y0011000D03*
X0177417Y0011000D03*
D12*
X0187850Y0021433D03*
X0187850Y0031433D03*
X0187850Y0041433D03*
X0187850Y0051433D03*
X0187850Y0147417D03*
X0187850Y0157417D03*
X0187850Y0167417D03*
X0187850Y0177417D03*
X0011000Y0177417D03*
X0011000Y0167417D03*
X0011000Y0157417D03*
X0011000Y0147417D03*
X0011000Y0051433D03*
X0011000Y0041433D03*
X0011000Y0031433D03*
X0011000Y0021433D03*
D13*
X0016217Y0016217D02*
X0022693Y0022693D01*
X0022693Y0022929D01*
X0028087Y0028087D02*
X0024740Y0031433D01*
X0011000Y0031433D01*
X0011000Y0021433D02*
X0016217Y0016217D01*
X0021433Y0011000D01*
X0031315Y0011118D02*
X0031315Y0024858D01*
X0028087Y0028087D01*
X0028087Y0028520D02*
X0032929Y0033362D01*
X0039110Y0039110D02*
X0043638Y0043638D01*
X0039110Y0039110D02*
X0036394Y0041827D01*
X0016748Y0041827D01*
X0016354Y0041433D01*
X0011000Y0041433D01*
X0011394Y0041827D02*
X0016748Y0041827D01*
X0020685Y0051394D02*
X0011039Y0051394D01*
X0011000Y0051433D02*
X0020646Y0051433D01*
X0020685Y0051394D01*
X0044150Y0051394D01*
X0044307Y0051551D01*
X0044307Y0099425D01*
X0044307Y0147181D01*
X0044071Y0147417D01*
X0011000Y0147417D01*
X0011000Y0157417D02*
X0034740Y0157417D01*
X0037161Y0159839D01*
X0039366Y0159839D01*
X0042969Y0156236D01*
X0037161Y0159839D02*
X0041669Y0164346D01*
X0041669Y0182102D01*
X0041433Y0182339D01*
X0041433Y0187850D01*
X0041669Y0187614D02*
X0041669Y0182102D01*
X0051394Y0178165D02*
X0051433Y0178205D01*
X0051433Y0187850D01*
X0051394Y0187811D02*
X0051394Y0178165D01*
X0051394Y0154661D01*
X0103087Y0154661D01*
X0103362Y0154386D01*
X0099583Y0154386D01*
X0103362Y0154386D02*
X0147417Y0154386D01*
X0147417Y0187850D01*
X0157417Y0187850D02*
X0157417Y0166118D01*
X0161768Y0161768D01*
X0166394Y0157142D01*
X0182102Y0157142D01*
X0182378Y0157417D01*
X0187850Y0157417D01*
X0187575Y0157142D02*
X0182102Y0157142D01*
X0187850Y0147417D02*
X0154819Y0147417D01*
X0154819Y0099386D01*
X0154701Y0099268D01*
X0154701Y0051394D01*
X0182102Y0051394D01*
X0182142Y0051433D01*
X0187850Y0051433D01*
X0187811Y0051394D02*
X0182102Y0051394D01*
X0178283Y0041433D02*
X0178165Y0041315D01*
X0161236Y0041315D01*
X0158461Y0038539D01*
X0157417Y0037496D01*
X0157417Y0011000D01*
X0147417Y0011000D02*
X0147417Y0044110D01*
X0103559Y0044110D01*
X0099228Y0044110D02*
X0051433Y0044110D01*
X0051433Y0011000D01*
X0041433Y0011000D02*
X0041433Y0036787D01*
X0039110Y0039110D01*
X0045803Y0049740D02*
X0044307Y0051236D01*
X0045803Y0049740D02*
X0051433Y0044110D01*
X0054031Y0054228D02*
X0060764Y0060961D01*
X0060961Y0060961D02*
X0066000Y0055921D01*
X0099228Y0055921D01*
X0099425Y0056118D02*
X0133323Y0056118D01*
X0137890Y0060685D01*
X0145094Y0053480D01*
X0147417Y0044110D02*
X0154701Y0051394D01*
X0155488Y0043559D02*
X0158461Y0040587D01*
X0158461Y0038539D01*
X0157417Y0037496D01*
X0164583Y0033717D02*
X0169209Y0029091D01*
X0169209Y0027791D02*
X0167417Y0026000D01*
X0167417Y0011000D01*
X0177417Y0011000D02*
X0181709Y0015291D01*
X0187850Y0021433D01*
X0181709Y0016866D02*
X0175764Y0022811D01*
X0169209Y0027791D02*
X0171709Y0030291D01*
X0172850Y0031433D01*
X0187850Y0031433D01*
X0187732Y0041315D02*
X0178165Y0041315D01*
X0178283Y0041433D02*
X0187850Y0041433D01*
X0142890Y0065685D02*
X0142890Y0099583D01*
X0143244Y0099937D02*
X0143244Y0134661D01*
X0138953Y0138953D01*
X0145055Y0145055D01*
X0138953Y0138953D02*
X0135173Y0142732D01*
X0099425Y0142732D01*
X0063992Y0142732D01*
X0060429Y0139169D01*
X0054543Y0145055D01*
X0060429Y0139169D02*
X0056118Y0134858D01*
X0056118Y0099425D01*
X0056118Y0065803D01*
X0060961Y0060961D01*
X0067024Y0067024D02*
X0072870Y0072870D01*
X0077890Y0067850D01*
X0100921Y0067850D01*
X0101000Y0067929D02*
X0122929Y0067929D01*
X0126807Y0071807D01*
X0131433Y0067181D01*
X0126807Y0071807D02*
X0131000Y0076000D01*
X0131000Y0099346D01*
X0130921Y0099425D02*
X0130921Y0122811D01*
X0126669Y0127063D01*
X0130606Y0131000D01*
X0126669Y0127063D02*
X0123047Y0130685D01*
X0099661Y0130685D01*
X0099268Y0131079D02*
X0077535Y0131079D01*
X0073303Y0126846D01*
X0066394Y0133756D01*
X0073303Y0126846D02*
X0067929Y0121472D01*
X0067929Y0099425D01*
X0067929Y0077811D01*
X0072870Y0072870D01*
X0078126Y0078441D02*
X0082850Y0083165D01*
X0083165Y0083165D02*
X0086591Y0079740D01*
X0099425Y0079740D01*
X0111866Y0079740D01*
X0115094Y0082969D01*
X0120528Y0077535D01*
X0115094Y0082969D02*
X0119110Y0086984D01*
X0119110Y0099425D01*
X0119425Y0099740D02*
X0119425Y0110449D01*
X0115941Y0113933D01*
X0120528Y0118520D01*
X0120528Y0119543D01*
X0115941Y0113933D02*
X0110764Y0119110D01*
X0099425Y0119110D01*
X0099110Y0118795D02*
X0089110Y0118795D01*
X0084031Y0113717D01*
X0079740Y0118008D01*
X0079740Y0118520D01*
X0084031Y0113717D02*
X0079740Y0109425D01*
X0079740Y0099425D01*
X0079346Y0099031D02*
X0079346Y0086984D01*
X0083165Y0083165D01*
X0137890Y0060685D02*
X0142890Y0065685D01*
X0154819Y0147417D02*
X0147417Y0154386D01*
X0156354Y0155961D02*
X0161768Y0161374D01*
X0165646Y0165803D02*
X0170154Y0170311D01*
X0170311Y0170311D02*
X0167339Y0173283D01*
X0167339Y0187772D01*
X0177417Y0187850D02*
X0182634Y0182634D01*
X0185134Y0180134D01*
X0182634Y0182004D02*
X0176551Y0175921D01*
X0170311Y0170311D02*
X0173205Y0167417D01*
X0187850Y0167417D01*
X0051394Y0154661D02*
X0044543Y0147417D01*
X0032772Y0166079D02*
X0029701Y0169150D01*
X0027850Y0169150D01*
X0030350Y0171650D01*
X0031433Y0172732D01*
X0031433Y0187850D01*
X0021433Y0187850D02*
X0015291Y0181709D01*
X0017654Y0181709D01*
X0022890Y0176472D01*
X0027850Y0169150D02*
X0026118Y0167417D01*
X0011000Y0167417D01*
X0011000Y0177417D02*
X0015291Y0181709D01*
D14*
X0044543Y0147417D02*
X0044307Y0147181D01*
X0051512Y0154543D02*
X0051394Y0154661D01*
X0053835Y0145055D02*
X0054543Y0145055D01*
X0099268Y0131079D02*
X0099661Y0130685D01*
X0099425Y0130921D02*
X0099268Y0131079D01*
X0099425Y0119110D02*
X0099110Y0118795D01*
X0079740Y0099425D02*
X0079346Y0099031D01*
X0082850Y0083165D02*
X0083165Y0083165D01*
X0099425Y0067929D02*
X0101000Y0067929D01*
X0100921Y0067850D01*
X0120528Y0077535D02*
X0120764Y0077535D01*
X0131433Y0067181D02*
X0131669Y0067181D01*
X0103559Y0044110D02*
X0103362Y0044307D01*
X0099425Y0044307D01*
X0099228Y0044110D01*
X0060961Y0060961D02*
X0060764Y0060961D01*
X0045803Y0049740D02*
X0044150Y0051394D01*
X0043638Y0043835D02*
X0043638Y0043638D01*
X0028087Y0028520D02*
X0028087Y0028087D01*
X0031315Y0011118D02*
X0031433Y0011000D01*
X0119110Y0099425D02*
X0119425Y0099740D01*
X0130921Y0099425D02*
X0131000Y0099346D01*
X0142890Y0099583D02*
X0143244Y0099937D01*
X0130882Y0131000D02*
X0130606Y0131000D01*
X0145055Y0145055D02*
X0145213Y0145055D01*
X0154543Y0147142D02*
X0154819Y0147417D01*
X0161768Y0161374D02*
X0161768Y0161768D01*
X0170154Y0170311D02*
X0170311Y0170311D01*
X0176551Y0175646D02*
X0176551Y0175921D01*
X0182634Y0182004D02*
X0182634Y0182634D01*
X0185134Y0180134D02*
X0187850Y0177417D01*
X0167417Y0187850D02*
X0167339Y0187772D01*
X0099583Y0154386D02*
X0099425Y0154543D01*
X0169209Y0029091D02*
X0169209Y0027791D01*
X0181709Y0016866D02*
X0181709Y0015291D01*
D15*
X0175764Y0022811D03*
X0164583Y0033717D03*
X0155488Y0043559D03*
X0145094Y0053480D03*
X0131669Y0067181D03*
X0120764Y0077535D03*
X0078126Y0078441D03*
X0067024Y0067024D03*
X0054031Y0054228D03*
X0043638Y0043835D03*
X0032929Y0033362D03*
X0022693Y0022929D03*
X0079740Y0118520D03*
X0066394Y0133756D03*
X0053835Y0145055D03*
X0042969Y0156236D03*
X0032772Y0166079D03*
X0022890Y0176472D03*
X0120528Y0119543D03*
X0130882Y0131000D03*
X0145213Y0145055D03*
X0156354Y0155961D03*
X0165646Y0165803D03*
X0176551Y0175646D03*
M02*
